<svg width="360" height="60" viewBox="0 0 360 60" fill="none" xmlns="http://www.w3.org/2000/svg">
<rect width="360" height="60" rx="30" fill="url(#paint0_linear_6_62)"/>
<path fill-rule="evenodd" clip-rule="evenodd" d="M140 38C142.122 38 144.157 37.1571 145.657 35.6569C147.157 34.1566 148 32.1217 148 30C148 27.8783 147.157 25.8434 145.657 24.3431C144.157 22.8429 142.122 22 140 22C137.878 22 135.843 22.8429 134.343 24.3431C132.843 25.8434 132 27.8783 132 30C132 32.1217 132.843 34.1566 134.343 35.6569C135.843 37.1571 137.878 38 140 38ZM140.707 27.707C140.889 27.5184 140.99 27.2658 140.988 27.0036C140.985 26.7414 140.88 26.4906 140.695 26.3052C140.509 26.1198 140.259 26.0146 139.996 26.0123C139.734 26.01 139.482 26.1108 139.293 26.293L136.293 29.293C136.106 29.4805 136 29.7348 136 30C136 30.2652 136.106 30.5195 136.293 30.707L139.293 33.707C139.482 33.8892 139.734 33.99 139.996 33.9877C140.259 33.9854 140.509 33.8802 140.695 33.6948C140.88 33.5094 140.985 33.2586 140.988 32.9964C140.99 32.7342 140.889 32.4816 140.707 32.293L139.414 31H143C143.265 31 143.52 30.8946 143.707 30.7071C143.895 30.5196 144 30.2652 144 30C144 29.7348 143.895 29.4804 143.707 29.2929C143.52 29.1054 143.265 29 143 29H139.414L140.707 27.707Z" fill="white"/>
<path d="M163.94 29.86C164.687 29.9933 165.32 30.3867 165.84 31.04C166.36 31.6933 166.62 32.4333 166.62 33.26C166.62 33.9667 166.433 34.6067 166.06 35.18C165.7 35.74 165.173 36.1867 164.48 36.52C163.787 36.84 162.98 37 162.06 37H156.5V23.1H161.8C162.747 23.1 163.56 23.26 164.24 23.58C164.92 23.9 165.433 24.3333 165.78 24.88C166.127 25.4133 166.3 26.0133 166.3 26.68C166.3 27.48 166.087 28.1467 165.66 28.68C165.233 29.2133 164.66 29.6067 163.94 29.86ZM158.78 28.94H161.6C162.347 28.94 162.927 28.7733 163.34 28.44C163.767 28.0933 163.98 27.6 163.98 26.96C163.98 26.3333 163.767 25.8467 163.34 25.5C162.927 25.14 162.347 24.96 161.6 24.96H158.78V28.94ZM161.86 35.14C162.633 35.14 163.24 34.9533 163.68 34.58C164.12 34.2067 164.34 33.6867 164.34 33.02C164.34 32.34 164.107 31.8 163.64 31.4C163.173 31 162.553 30.8 161.78 30.8H158.78V35.14H161.86ZM168.338 31.44C168.338 30.3333 168.564 29.3533 169.018 28.5C169.484 27.6467 170.111 26.9867 170.898 26.52C171.698 26.04 172.578 25.8 173.538 25.8C174.404 25.8 175.158 25.9733 175.798 26.32C176.451 26.6533 176.971 27.0733 177.358 27.58V25.98H179.658V37H177.358V35.36C176.971 35.88 176.444 36.3133 175.778 36.66C175.111 37.0067 174.351 37.18 173.498 37.18C172.551 37.18 171.684 36.94 170.898 36.46C170.111 35.9667 169.484 35.2867 169.018 34.42C168.564 33.54 168.338 32.5467 168.338 31.44ZM177.358 31.48C177.358 30.72 177.198 30.06 176.878 29.5C176.571 28.94 176.164 28.5133 175.658 28.22C175.151 27.9267 174.604 27.78 174.018 27.78C173.431 27.78 172.884 27.9267 172.378 28.22C171.871 28.5 171.458 28.92 171.138 29.48C170.831 30.0267 170.678 30.68 170.678 31.44C170.678 32.2 170.831 32.8667 171.138 33.44C171.458 34.0133 171.871 34.4533 172.378 34.76C172.898 35.0533 173.444 35.2 174.018 35.2C174.604 35.2 175.151 35.0533 175.658 34.76C176.164 34.4667 176.571 34.04 176.878 33.48C177.198 32.9067 177.358 32.24 177.358 31.48ZM181.892 31.48C181.892 30.3467 182.119 29.3533 182.572 28.5C183.039 27.6333 183.679 26.9667 184.492 26.5C185.306 26.0333 186.239 25.8 187.292 25.8C188.626 25.8 189.726 26.12 190.592 26.76C191.472 27.3867 192.066 28.2867 192.372 29.46H189.912C189.712 28.9133 189.392 28.4867 188.952 28.18C188.512 27.8733 187.959 27.72 187.292 27.72C186.359 27.72 185.612 28.0533 185.052 28.72C184.506 29.3733 184.232 30.2933 184.232 31.48C184.232 32.6667 184.506 33.5933 185.052 34.26C185.612 34.9267 186.359 35.26 187.292 35.26C188.612 35.26 189.486 34.68 189.912 33.52H192.372C192.052 34.64 191.452 35.5333 190.572 36.2C189.692 36.8533 188.599 37.18 187.292 37.18C186.239 37.18 185.306 36.9467 184.492 36.48C183.679 36 183.039 35.3333 182.572 34.48C182.119 33.6133 181.892 32.6133 181.892 31.48ZM199.005 31.5L204.085 37H201.005L196.925 32.26V37H194.645V22.2H196.925V30.8L200.925 25.98H204.085L199.005 31.5Z" fill="white"/>
<defs>
<linearGradient id="paint0_linear_6_62" x1="180" y1="0" x2="180" y2="60" gradientUnits="userSpaceOnUse">
<stop stop-opacity="0.1"/>
<stop offset="1" stop-opacity="0.4"/>
</linearGradient>
</defs>
</svg>
