<svg width="360" height="50" viewBox="0 0 360 50" fill="none" xmlns="http://www.w3.org/2000/svg">
<rect opacity="0.5" x="1" y="1" width="358" height="48" rx="24" fill="white" stroke="#594A98" stroke-width="2"/>
<path d="M28 20C28 21.0609 27.5786 22.0783 26.8284 22.8284C26.0783 23.5786 25.0609 24 24 24C22.9391 24 21.9217 23.5786 21.1716 22.8284C20.4214 22.0783 20 21.0609 20 20C20 18.9391 20.4214 17.9217 21.1716 17.1716C21.9217 16.4214 22.9391 16 24 16C25.0609 16 26.0783 16.4214 26.8284 17.1716C27.5786 17.9217 28 18.9391 28 20V20ZM24 27C22.1435 27 20.363 27.7375 19.0503 29.0503C17.7375 30.363 17 32.1435 17 34H31C31 32.1435 30.2625 30.363 28.9497 29.0503C27.637 27.7375 25.8565 27 24 27V27Z" stroke="#594A97" stroke-width="2" stroke-linecap="round" stroke-linejoin="round"/>
</svg>
