<svg width="420" height="700" viewBox="0 0 420 700" fill="none" xmlns="http://www.w3.org/2000/svg">
<rect width="420" height="700" rx="40" fill="#292929"/>
<rect x="20" y="278" width="380" height="280" rx="10" fill="#F7DB72"/>
<rect x="21" y="617" width="378" height="66" rx="33" fill="#292929" stroke="#F7DB72" stroke-width="2"/>
<rect x="11" y="37" width="258" height="48" rx="24" fill="#292929" stroke="white" stroke-width="2"/>
<path d="M52.84 71.14C51.5467 71.14 50.3533 70.84 49.26 70.24C48.18 69.6267 47.32 68.78 46.68 67.7C46.0533 66.6067 45.74 65.38 45.74 64.02C45.74 62.66 46.0533 61.44 46.68 60.36C47.32 59.28 48.18 58.44 49.26 57.84C50.3533 57.2267 51.5467 56.92 52.84 56.92C54.1467 56.92 55.34 57.2267 56.42 57.84C57.5133 58.44 58.3733 59.28 59 60.36C59.6267 61.44 59.94 62.66 59.94 64.02C59.94 65.38 59.6267 66.6067 59 67.7C58.3733 68.78 57.5133 69.6267 56.42 70.24C55.34 70.84 54.1467 71.14 52.84 71.14ZM52.84 69.16C53.76 69.16 54.58 68.9533 55.3 68.54C56.02 68.1133 56.58 67.5133 56.98 66.74C57.3933 65.9533 57.6 65.0467 57.6 64.02C57.6 62.9933 57.3933 62.0933 56.98 61.32C56.58 60.5467 56.02 59.9533 55.3 59.54C54.58 59.1267 53.76 58.92 52.84 58.92C51.92 58.92 51.1 59.1267 50.38 59.54C49.66 59.9533 49.0933 60.5467 48.68 61.32C48.28 62.0933 48.08 62.9933 48.08 64.02C48.08 65.0467 48.28 65.9533 48.68 66.74C49.0933 67.5133 49.66 68.1133 50.38 68.54C51.1 68.9533 51.92 69.16 52.84 69.16ZM69.6236 63.86C70.3703 63.9933 71.0036 64.3867 71.5236 65.04C72.0436 65.6933 72.3036 66.4333 72.3036 67.26C72.3036 67.9667 72.1169 68.6067 71.7436 69.18C71.3836 69.74 70.8569 70.1867 70.1636 70.52C69.4703 70.84 68.6636 71 67.7436 71H62.1836V57.1H67.4836C68.4303 57.1 69.2436 57.26 69.9236 57.58C70.6036 57.9 71.1169 58.3333 71.4636 58.88C71.8103 59.4133 71.9836 60.0133 71.9836 60.68C71.9836 61.48 71.7703 62.1467 71.3436 62.68C70.9169 63.2133 70.3436 63.6067 69.6236 63.86ZM64.4636 62.94H67.2836C68.0303 62.94 68.6103 62.7733 69.0236 62.44C69.4503 62.0933 69.6636 61.6 69.6636 60.96C69.6636 60.3333 69.4503 59.8467 69.0236 59.5C68.6103 59.14 68.0303 58.96 67.2836 58.96H64.4636V62.94ZM67.5436 69.14C68.3169 69.14 68.9236 68.9533 69.3636 68.58C69.8036 68.2067 70.0236 67.6867 70.0236 67.02C70.0236 66.34 69.7903 65.8 69.3236 65.4C68.8569 65 68.2369 64.8 67.4636 64.8H64.4636V69.14H67.5436ZM82.3613 57.1V67.12C82.3613 68.36 81.9813 69.34 81.2213 70.06C80.4746 70.78 79.4879 71.14 78.2613 71.14C77.0346 71.14 76.0413 70.78 75.2813 70.06C74.5346 69.34 74.1613 68.36 74.1613 67.12H76.4613C76.4746 67.7333 76.6279 68.22 76.9213 68.58C77.2279 68.94 77.6746 69.12 78.2613 69.12C78.8479 69.12 79.2946 68.94 79.6013 68.58C79.9079 68.2067 80.0613 67.72 80.0613 67.12V57.1H82.3613ZM88.3503 58.94V63.02H93.1503V64.88H88.3503V69.14H93.7503V71H86.0703V57.08H93.7503V58.94H88.3503ZM95.7986 64.02C95.7986 62.66 96.1119 61.44 96.7386 60.36C97.3786 59.28 98.2386 58.44 99.3186 57.84C100.412 57.2267 101.605 56.92 102.899 56.92C104.379 56.92 105.692 57.2867 106.839 58.02C107.999 58.74 108.839 59.7667 109.359 61.1H106.619C106.259 60.3667 105.759 59.82 105.119 59.46C104.479 59.1 103.739 58.92 102.899 58.92C101.979 58.92 101.159 59.1267 100.439 59.54C99.7186 59.9533 99.1519 60.5467 98.7386 61.32C98.3386 62.0933 98.1386 62.9933 98.1386 64.02C98.1386 65.0467 98.3386 65.9467 98.7386 66.72C99.1519 67.4933 99.7186 68.0933 100.439 68.52C101.159 68.9333 101.979 69.14 102.899 69.14C103.739 69.14 104.479 68.96 105.119 68.6C105.759 68.24 106.259 67.6933 106.619 66.96H109.359C108.839 68.2933 107.999 69.32 106.839 70.04C105.692 70.76 104.379 71.12 102.899 71.12C101.592 71.12 100.399 70.82 99.3186 70.22C98.2386 69.6067 97.3786 68.76 96.7386 67.68C96.1119 66.6 95.7986 65.38 95.7986 64.02ZM121.007 57.1V58.96H117.307V71H115.027V58.96H111.307V57.1H121.007Z" fill="white"/>
<path d="M142.004 51.344L135.032 71H129.04L122.068 51.344H127.164L132.036 66.184L136.936 51.344H142.004ZM148.794 55.18V59.156H155.206V62.852H148.794V67.164H156.046V71H144.006V51.344H156.046V55.18H148.794ZM176.178 51.344V71H171.39V62.908H163.942V71H159.154V51.344H163.942V59.044H171.39V51.344H176.178ZM184.422 51.344V71H179.634V51.344H184.422ZM187.08 61.144C187.08 59.2027 187.5 57.476 188.34 55.964C189.18 54.4333 190.347 53.248 191.84 52.408C193.352 51.5493 195.06 51.12 196.964 51.12C199.298 51.12 201.295 51.736 202.956 52.968C204.618 54.2 205.728 55.88 206.288 58.008H201.024C200.632 57.1867 200.072 56.5613 199.344 56.132C198.635 55.7027 197.823 55.488 196.908 55.488C195.434 55.488 194.239 56.0013 193.324 57.028C192.41 58.0547 191.952 59.4267 191.952 61.144C191.952 62.8613 192.41 64.2333 193.324 65.26C194.239 66.2867 195.434 66.8 196.908 66.8C197.823 66.8 198.635 66.5853 199.344 66.156C200.072 65.7267 200.632 65.1013 201.024 64.28H206.288C205.728 66.408 204.618 68.088 202.956 69.32C201.295 70.5333 199.298 71.14 196.964 71.14C195.06 71.14 193.352 70.72 191.84 69.88C190.347 69.0213 189.18 67.836 188.34 66.324C187.5 64.812 187.08 63.0853 187.08 61.144ZM214.008 67.304H220.28V71H209.22V51.344H214.008V67.304ZM227.352 55.18V59.156H233.764V62.852H227.352V67.164H234.604V71H222.564V51.344H234.604V55.18H227.352Z" fill="#F7DB72"/>
<path d="M30.984 124.016H26.792L26.12 126H23.256L27.32 114.768H30.488L34.552 126H31.656L30.984 124.016ZM30.28 121.904L28.888 117.792L27.512 121.904H30.28ZM43.8689 114.768V116.96H40.8929V126H38.1569V116.96H35.1809V114.768H43.8689ZM53.322 114.768V116.96H50.346V126H47.61V116.96H44.634V114.768H53.322ZM60.4231 126L58.0871 121.76H57.4311V126H54.6951V114.768H59.2871C60.1725 114.768 60.9245 114.923 61.5431 115.232C62.1725 115.541 62.6418 115.968 62.9511 116.512C63.2605 117.045 63.4151 117.643 63.4151 118.304C63.4151 119.051 63.2018 119.717 62.7751 120.304C62.3591 120.891 61.7405 121.307 60.9191 121.552L63.5111 126H60.4231ZM57.4311 119.824H59.1271C59.6285 119.824 60.0018 119.701 60.2471 119.456C60.5031 119.211 60.6311 118.864 60.6311 118.416C60.6311 117.989 60.5031 117.653 60.2471 117.408C60.0018 117.163 59.6285 117.04 59.1271 117.04H57.4311V119.824ZM67.8686 114.768V126H65.1326V114.768H67.8686ZM76.6514 120.24C77.302 120.379 77.8247 120.704 78.2194 121.216C78.614 121.717 78.8114 122.293 78.8114 122.944C78.8114 123.883 78.4807 124.629 77.8194 125.184C77.1687 125.728 76.2567 126 75.0834 126H69.8514V114.768H74.9074C76.0487 114.768 76.9394 115.029 77.5794 115.552C78.23 116.075 78.5554 116.784 78.5554 117.68C78.5554 118.341 78.3794 118.891 78.0274 119.328C77.686 119.765 77.2274 120.069 76.6514 120.24ZM72.5874 119.312H74.3794C74.8274 119.312 75.1687 119.216 75.4034 119.024C75.6487 118.821 75.7714 118.528 75.7714 118.144C75.7714 117.76 75.6487 117.467 75.4034 117.264C75.1687 117.061 74.8274 116.96 74.3794 116.96H72.5874V119.312ZM74.6034 123.792C75.062 123.792 75.414 123.691 75.6594 123.488C75.9154 123.275 76.0434 122.971 76.0434 122.576C76.0434 122.181 75.91 121.872 75.6434 121.648C75.3874 121.424 75.03 121.312 74.5714 121.312H72.5874V123.792H74.6034ZM83.0863 114.768V121.488C83.0863 122.16 83.2516 122.677 83.5823 123.04C83.9129 123.403 84.3983 123.584 85.0383 123.584C85.6783 123.584 86.1689 123.403 86.5103 123.04C86.8516 122.677 87.0223 122.16 87.0223 121.488V114.768H89.7583V121.472C89.7583 122.475 89.5449 123.323 89.1183 124.016C88.6916 124.709 88.1156 125.232 87.3903 125.584C86.6756 125.936 85.8756 126.112 84.9903 126.112C84.1049 126.112 83.3103 125.941 82.6063 125.6C81.9129 125.248 81.3636 124.725 80.9583 124.032C80.5529 123.328 80.3503 122.475 80.3503 121.472V114.768H83.0863ZM99.7595 114.768V116.96H96.7835V126H94.0475V116.96H91.0715V114.768H99.7595ZM103.869 116.96V119.232H107.533V121.344H103.869V123.808H108.013V126H101.133V114.768H108.013V116.96H103.869ZM113.853 126.112C113.032 126.112 112.296 125.979 111.645 125.712C110.994 125.445 110.472 125.051 110.077 124.528C109.693 124.005 109.49 123.376 109.469 122.64H112.381C112.424 123.056 112.568 123.376 112.813 123.6C113.058 123.813 113.378 123.92 113.773 123.92C114.178 123.92 114.498 123.829 114.733 123.648C114.968 123.456 115.085 123.195 115.085 122.864C115.085 122.587 114.989 122.357 114.797 122.176C114.616 121.995 114.386 121.845 114.109 121.728C113.842 121.611 113.458 121.477 112.957 121.328C112.232 121.104 111.64 120.88 111.181 120.656C110.722 120.432 110.328 120.101 109.997 119.664C109.666 119.227 109.501 118.656 109.501 117.952C109.501 116.907 109.88 116.091 110.637 115.504C111.394 114.907 112.381 114.608 113.597 114.608C114.834 114.608 115.832 114.907 116.589 115.504C117.346 116.091 117.752 116.912 117.805 117.968H114.845C114.824 117.605 114.69 117.323 114.445 117.12C114.2 116.907 113.885 116.8 113.501 116.8C113.17 116.8 112.904 116.891 112.701 117.072C112.498 117.243 112.397 117.493 112.397 117.824C112.397 118.187 112.568 118.469 112.909 118.672C113.25 118.875 113.784 119.093 114.509 119.328C115.234 119.573 115.821 119.808 116.269 120.032C116.728 120.256 117.122 120.581 117.453 121.008C117.784 121.435 117.949 121.984 117.949 122.656C117.949 123.296 117.784 123.877 117.453 124.4C117.133 124.923 116.664 125.339 116.045 125.648C115.426 125.957 114.696 126.112 113.853 126.112ZM120.913 126.128C120.433 126.128 120.038 125.989 119.729 125.712C119.43 125.424 119.281 125.072 119.281 124.656C119.281 124.229 119.43 123.872 119.729 123.584C120.038 123.296 120.433 123.152 120.913 123.152C121.382 123.152 121.766 123.296 122.065 123.584C122.374 123.872 122.529 124.229 122.529 124.656C122.529 125.072 122.374 125.424 122.065 125.712C121.766 125.989 121.382 126.128 120.913 126.128ZM120.913 119.616C120.433 119.616 120.038 119.477 119.729 119.2C119.43 118.912 119.281 118.56 119.281 118.144C119.281 117.717 119.43 117.36 119.729 117.072C120.038 116.784 120.433 116.64 120.913 116.64C121.382 116.64 121.766 116.784 122.065 117.072C122.374 117.36 122.529 117.717 122.529 118.144C122.529 118.56 122.374 118.912 122.065 119.2C121.766 119.477 121.382 119.616 120.913 119.616Z" fill="white"/>
<path d="M181.667 130C181.667 132.946 184.054 135.333 187 135.333C189.946 135.333 192.333 132.946 192.333 130C192.333 127.054 189.946 124.667 187 124.667C184.054 124.667 181.667 127.054 181.667 130ZM23 131H24.9524V129H23V131ZM28.8571 131H32.7619V129H28.8571V131ZM36.6667 131H40.5714V129H36.6667V131ZM44.4762 131H48.381V129H44.4762V131ZM52.2857 131H56.1905V129H52.2857V131ZM60.0952 131H64V129H60.0952V131ZM67.9048 131H71.8095V129H67.9048V131ZM75.7143 131H79.619V129H75.7143V131ZM83.5238 131H87.4286V129H83.5238V131ZM91.3333 131H95.2381V129H91.3333V131ZM99.1429 131H103.048V129H99.1429V131ZM106.952 131H110.857V129H106.952V131ZM114.762 131H118.667V129H114.762V131ZM122.571 131H126.476V129H122.571V131ZM130.381 131H134.286V129H130.381V131ZM138.19 131H142.095V129H138.19V131ZM146 131H149.905V129H146V131ZM153.81 131H157.714V129H153.81V131ZM161.619 131H165.524V129H161.619V131ZM169.429 131H173.333V129H169.429V131ZM177.238 131H181.143V129H177.238V131ZM185.048 131H187V129H185.048V131Z" fill="#F7DB72"/>
<path d="M36.712 584.768V596H33.976V589.264L31.464 596H29.256L26.728 589.248V596H23.992V584.768H27.224L30.376 592.544L33.496 584.768H36.712ZM41.4155 586.96V589.232H45.0795V591.344H41.4155V593.808H45.5595V596H38.6795V584.768H45.5595V586.96H41.4155ZM55.4158 584.768V586.96H52.4398V596H49.7038V586.96H46.7278V584.768H55.4158ZM66.5169 584.768V596H63.7809V591.376H59.5249V596H56.7889V584.768H59.5249V589.168H63.7809V584.768H66.5169ZM73.804 596.112C72.748 596.112 71.7773 595.867 70.892 595.376C70.0173 594.885 69.3187 594.203 68.796 593.328C68.284 592.443 68.028 591.451 68.028 590.352C68.028 589.253 68.284 588.267 68.796 587.392C69.3187 586.517 70.0173 585.835 70.892 585.344C71.7773 584.853 72.748 584.608 73.804 584.608C74.86 584.608 75.8253 584.853 76.7 585.344C77.5853 585.835 78.2787 586.517 78.78 587.392C79.292 588.267 79.548 589.253 79.548 590.352C79.548 591.451 79.292 592.443 78.78 593.328C78.268 594.203 77.5747 594.885 76.7 595.376C75.8253 595.867 74.86 596.112 73.804 596.112ZM73.804 593.616C74.7 593.616 75.4147 593.317 75.948 592.72C76.492 592.123 76.764 591.333 76.764 590.352C76.764 589.36 76.492 588.571 75.948 587.984C75.4147 587.387 74.7 587.088 73.804 587.088C72.8973 587.088 72.172 587.381 71.628 587.968C71.0947 588.555 70.828 589.349 70.828 590.352C70.828 591.344 71.0947 592.139 71.628 592.736C72.172 593.323 72.8973 593.616 73.804 593.616ZM85.2781 584.768C86.4621 584.768 87.4968 585.003 88.3821 585.472C89.2675 585.941 89.9501 586.603 90.4301 587.456C90.9208 588.299 91.1661 589.275 91.1661 590.384C91.1661 591.483 90.9208 592.459 90.4301 593.312C89.9501 594.165 89.2621 594.827 88.3661 595.296C87.4808 595.765 86.4515 596 85.2781 596H81.0701V584.768H85.2781ZM85.1021 593.632C86.1368 593.632 86.9421 593.349 87.5181 592.784C88.0941 592.219 88.3821 591.419 88.3821 590.384C88.3821 589.349 88.0941 588.544 87.5181 587.968C86.9421 587.392 86.1368 587.104 85.1021 587.104H83.8061V593.632H85.1021ZM96.7591 596.112C95.9378 596.112 95.2018 595.979 94.5511 595.712C93.9005 595.445 93.3778 595.051 92.9831 594.528C92.5991 594.005 92.3965 593.376 92.3751 592.64H95.2871C95.3298 593.056 95.4738 593.376 95.7191 593.6C95.9645 593.813 96.2845 593.92 96.6791 593.92C97.0845 593.92 97.4045 593.829 97.6391 593.648C97.8738 593.456 97.9911 593.195 97.9911 592.864C97.9911 592.587 97.8951 592.357 97.7031 592.176C97.5218 591.995 97.2925 591.845 97.0151 591.728C96.7485 591.611 96.3645 591.477 95.8631 591.328C95.1378 591.104 94.5458 590.88 94.0871 590.656C93.6285 590.432 93.2338 590.101 92.9031 589.664C92.5725 589.227 92.4071 588.656 92.4071 587.952C92.4071 586.907 92.7858 586.091 93.5431 585.504C94.3005 584.907 95.2871 584.608 96.5031 584.608C97.7405 584.608 98.7378 584.907 99.4951 585.504C100.252 586.091 100.658 586.912 100.711 587.968H97.7511C97.7298 587.605 97.5965 587.323 97.3511 587.12C97.1058 586.907 96.7911 586.8 96.4071 586.8C96.0765 586.8 95.8098 586.891 95.6071 587.072C95.4045 587.243 95.3031 587.493 95.3031 587.824C95.3031 588.187 95.4738 588.469 95.8151 588.672C96.1565 588.875 96.6898 589.093 97.4151 589.328C98.1405 589.573 98.7271 589.808 99.1751 590.032C99.6338 590.256 100.028 590.581 100.359 591.008C100.69 591.435 100.855 591.984 100.855 592.656C100.855 593.296 100.69 593.877 100.359 594.4C100.039 594.923 99.5698 595.339 98.9511 595.648C98.3325 595.957 97.6018 596.112 96.7591 596.112ZM103.819 596.128C103.339 596.128 102.944 595.989 102.635 595.712C102.336 595.424 102.187 595.072 102.187 594.656C102.187 594.229 102.336 593.872 102.635 593.584C102.944 593.296 103.339 593.152 103.819 593.152C104.288 593.152 104.672 593.296 104.971 593.584C105.28 593.872 105.435 594.229 105.435 594.656C105.435 595.072 105.28 595.424 104.971 595.712C104.672 595.989 104.288 596.128 103.819 596.128ZM103.819 589.616C103.339 589.616 102.944 589.477 102.635 589.2C102.336 588.912 102.187 588.56 102.187 588.144C102.187 587.717 102.336 587.36 102.635 587.072C102.944 586.784 103.339 586.64 103.819 586.64C104.288 586.64 104.672 586.784 104.971 587.072C105.28 587.36 105.435 587.717 105.435 588.144C105.435 588.56 105.28 588.912 104.971 589.2C104.672 589.477 104.288 589.616 103.819 589.616Z" fill="white"/>
<path d="M181.667 602.5C181.667 605.446 184.054 607.833 187 607.833C189.946 607.833 192.333 605.446 192.333 602.5C192.333 599.554 189.946 597.167 187 597.167C184.054 597.167 181.667 599.554 181.667 602.5ZM23 603.5H24.9524V601.5H23V603.5ZM28.8571 603.5H32.7619V601.5H28.8571V603.5ZM36.6667 603.5H40.5714V601.5H36.6667V603.5ZM44.4762 603.5H48.381V601.5H44.4762V603.5ZM52.2857 603.5H56.1905V601.5H52.2857V603.5ZM60.0952 603.5H64V601.5H60.0952V603.5ZM67.9048 603.5H71.8095V601.5H67.9048V603.5ZM75.7143 603.5H79.619V601.5H75.7143V603.5ZM83.5238 603.5H87.4286V601.5H83.5238V603.5ZM91.3333 603.5H95.2381V601.5H91.3333V603.5ZM99.1429 603.5H103.048V601.5H99.1429V603.5ZM106.952 603.5H110.857V601.5H106.952V603.5ZM114.762 603.5H118.667V601.5H114.762V603.5ZM122.571 603.5H126.476V601.5H122.571V603.5ZM130.381 603.5H134.286V601.5H130.381V603.5ZM138.19 603.5H142.095V601.5H138.19V603.5ZM146 603.5H149.905V601.5H146V603.5ZM153.81 603.5H157.714V601.5H153.81V603.5ZM161.619 603.5H165.524V601.5H161.619V603.5ZM169.429 603.5H173.333V601.5H169.429V603.5ZM177.238 603.5H181.143V601.5H177.238V603.5ZM185.048 603.5H187V601.5H185.048V603.5Z" fill="#F7DB72"/>
<rect x="21" y="141" width="76" height="118" rx="38" fill="#292929" stroke="#F7DB72" stroke-width="2"/>
<circle cx="59" cy="178" r="29" fill="#292929" stroke="white" stroke-width="2"/>
<path d="M43.844 177.68C44.332 177.784 44.724 178.028 45.02 178.412C45.316 178.788 45.464 179.22 45.464 179.708C45.464 180.412 45.216 180.972 44.72 181.388C44.232 181.796 43.548 182 42.668 182H38.744V173.576H42.536C43.392 173.576 44.06 173.772 44.54 174.164C45.028 174.556 45.272 175.088 45.272 175.76C45.272 176.256 45.14 176.668 44.876 176.996C44.62 177.324 44.276 177.552 43.844 177.68ZM40.796 176.984H42.14C42.476 176.984 42.732 176.912 42.908 176.768C43.092 176.616 43.184 176.396 43.184 176.108C43.184 175.82 43.092 175.6 42.908 175.448C42.732 175.296 42.476 175.22 42.14 175.22H40.796V176.984ZM42.308 180.344C42.652 180.344 42.916 180.268 43.1 180.116C43.292 179.956 43.388 179.728 43.388 179.432C43.388 179.136 43.288 178.904 43.088 178.736C42.896 178.568 42.628 178.484 42.284 178.484H40.796V180.344H42.308ZM50.9502 182L49.1982 178.82H48.7062V182H46.6542V173.576H50.0982C50.7622 173.576 51.3262 173.692 51.7902 173.924C52.2622 174.156 52.6142 174.476 52.8462 174.884C53.0782 175.284 53.1942 175.732 53.1942 176.228C53.1942 176.788 53.0342 177.288 52.7142 177.728C52.4022 178.168 51.9382 178.48 51.3222 178.664L53.2662 182H50.9502ZM48.7062 177.368H49.9782C50.3542 177.368 50.6342 177.276 50.8182 177.092C51.0102 176.908 51.1062 176.648 51.1062 176.312C51.1062 175.992 51.0102 175.74 50.8182 175.556C50.6342 175.372 50.3542 175.28 49.9782 175.28H48.7062V177.368ZM59.7263 180.512H56.5823L56.0783 182H53.9303L56.9783 173.576H59.3543L62.4023 182H60.2303L59.7263 180.512ZM59.1983 178.928L58.1543 175.844L57.1223 178.928H59.1983ZM70.8659 182H68.8139L65.3819 176.804V182H63.3299V173.576H65.3819L68.8139 178.796V173.576H70.8659V182ZM75.5094 173.576C76.3974 173.576 77.1734 173.752 77.8374 174.104C78.5014 174.456 79.0134 174.952 79.3734 175.592C79.7414 176.224 79.9254 176.956 79.9254 177.788C79.9254 178.612 79.7414 179.344 79.3734 179.984C79.0134 180.624 78.4974 181.12 77.8254 181.472C77.1614 181.824 76.3894 182 75.5094 182H72.3534V173.576H75.5094ZM75.3774 180.224C76.1534 180.224 76.7574 180.012 77.1894 179.588C77.6214 179.164 77.8374 178.564 77.8374 177.788C77.8374 177.012 77.6214 176.408 77.1894 175.976C76.7574 175.544 76.1534 175.328 75.3774 175.328H74.4054V180.224H75.3774Z" fill="#FFFDFD"/>
<rect x="122" y="141" width="76" height="118" rx="38" fill="#292929" stroke="#F7DB72" stroke-width="2"/>
<circle cx="160" cy="178" r="29" fill="#292929" stroke="white" stroke-width="2"/>
<path d="M147.04 182L145.288 178.82H144.796V182H142.744V173.576H146.188C146.852 173.576 147.416 173.692 147.88 173.924C148.352 174.156 148.704 174.476 148.936 174.884C149.168 175.284 149.284 175.732 149.284 176.228C149.284 176.788 149.124 177.288 148.804 177.728C148.492 178.168 148.028 178.48 147.412 178.664L149.356 182H147.04ZM144.796 177.368H146.068C146.444 177.368 146.724 177.276 146.908 177.092C147.1 176.908 147.196 176.648 147.196 176.312C147.196 175.992 147.1 175.74 146.908 175.556C146.724 175.372 146.444 175.28 146.068 175.28H144.796V177.368ZM152.624 175.22V176.924H155.372V178.508H152.624V180.356H155.732V182H150.572V173.576H155.732V175.22H152.624ZM162.548 173.576V175.22H159.116V176.996H161.684V178.592H159.116V182H157.064V173.576H162.548ZM165.679 175.22V176.924H168.427V178.508H165.679V180.356H168.787V182H163.627V173.576H168.787V175.22H165.679ZM174.415 182L172.663 178.82H172.171V182H170.119V173.576H173.563C174.227 173.576 174.791 173.692 175.255 173.924C175.727 174.156 176.079 174.476 176.311 174.884C176.543 175.284 176.659 175.732 176.659 176.228C176.659 176.788 176.499 177.288 176.179 177.728C175.867 178.168 175.403 178.48 174.787 178.664L176.731 182H174.415ZM172.171 177.368H173.443C173.819 177.368 174.099 177.276 174.283 177.092C174.475 176.908 174.571 176.648 174.571 176.312C174.571 175.992 174.475 175.74 174.283 175.556C174.099 175.372 173.819 175.28 173.443 175.28H172.171V177.368Z" fill="white"/>
<rect x="223" y="141" width="76" height="118" rx="38" fill="#292929" stroke="#F7DB72" stroke-width="2"/>
<circle cx="261" cy="178" r="29" fill="#292929" stroke="white" stroke-width="2"/>
<path d="M250.284 173.576V182H248.232V176.948L246.348 182H244.692L242.796 176.936V182H240.744V173.576H243.168L245.532 179.408L247.872 173.576H250.284ZM255.744 182.084C254.952 182.084 254.224 181.9 253.56 181.532C252.904 181.164 252.38 180.652 251.988 179.996C251.604 179.332 251.412 178.588 251.412 177.764C251.412 176.94 251.604 176.2 251.988 175.544C252.38 174.888 252.904 174.376 253.56 174.008C254.224 173.64 254.952 173.456 255.744 173.456C256.536 173.456 257.26 173.64 257.916 174.008C258.58 174.376 259.1 174.888 259.476 175.544C259.86 176.2 260.052 176.94 260.052 177.764C260.052 178.588 259.86 179.332 259.476 179.996C259.092 180.652 258.572 181.164 257.916 181.532C257.26 181.9 256.536 182.084 255.744 182.084ZM255.744 180.212C256.416 180.212 256.952 179.988 257.352 179.54C257.76 179.092 257.964 178.5 257.964 177.764C257.964 177.02 257.76 176.428 257.352 175.988C256.952 175.54 256.416 175.316 255.744 175.316C255.064 175.316 254.52 175.536 254.112 175.976C253.712 176.416 253.512 177.012 253.512 177.764C253.512 178.508 253.712 179.104 254.112 179.552C254.52 179.992 255.064 180.212 255.744 180.212ZM264.349 173.576C265.237 173.576 266.013 173.752 266.677 174.104C267.341 174.456 267.853 174.952 268.213 175.592C268.581 176.224 268.765 176.956 268.765 177.788C268.765 178.612 268.581 179.344 268.213 179.984C267.853 180.624 267.337 181.12 266.665 181.472C266.001 181.824 265.229 182 264.349 182H261.193V173.576H264.349ZM264.217 180.224C264.993 180.224 265.597 180.012 266.029 179.588C266.461 179.164 266.677 178.564 266.677 177.788C266.677 177.012 266.461 176.408 266.029 175.976C265.597 175.544 264.993 175.328 264.217 175.328H263.245V180.224H264.217ZM271.964 175.22V176.924H274.712V178.508H271.964V180.356H275.072V182H269.912V173.576H275.072V175.22H271.964ZM278.456 180.416H281.144V182H276.404V173.576H278.456V180.416Z" fill="white"/>
<rect x="324" y="141" width="76" height="118" rx="38" fill="#292929" stroke="#F7DB72" stroke-width="2"/>
<circle cx="362" cy="178" r="29" fill="#292929" stroke="white" stroke-width="2"/>
<path d="M341.396 177.776C341.396 176.944 341.576 176.204 341.936 175.556C342.296 174.9 342.796 174.392 343.436 174.032C344.084 173.664 344.816 173.48 345.632 173.48C346.632 173.48 347.488 173.744 348.2 174.272C348.912 174.8 349.388 175.52 349.628 176.432H347.372C347.204 176.08 346.964 175.812 346.652 175.628C346.348 175.444 346 175.352 345.608 175.352C344.976 175.352 344.464 175.572 344.072 176.012C343.68 176.452 343.484 177.04 343.484 177.776C343.484 178.512 343.68 179.1 344.072 179.54C344.464 179.98 344.976 180.2 345.608 180.2C346 180.2 346.348 180.108 346.652 179.924C346.964 179.74 347.204 179.472 347.372 179.12H349.628C349.388 180.032 348.912 180.752 348.2 181.28C347.488 181.8 346.632 182.06 345.632 182.06C344.816 182.06 344.084 181.88 343.436 181.52C342.796 181.152 342.296 180.644 341.936 179.996C341.576 179.348 341.396 178.608 341.396 177.776ZM354.869 182.084C354.077 182.084 353.349 181.9 352.685 181.532C352.029 181.164 351.505 180.652 351.113 179.996C350.729 179.332 350.537 178.588 350.537 177.764C350.537 176.94 350.729 176.2 351.113 175.544C351.505 174.888 352.029 174.376 352.685 174.008C353.349 173.64 354.077 173.456 354.869 173.456C355.661 173.456 356.385 173.64 357.041 174.008C357.705 174.376 358.225 174.888 358.601 175.544C358.985 176.2 359.177 176.94 359.177 177.764C359.177 178.588 358.985 179.332 358.601 179.996C358.217 180.652 357.697 181.164 357.041 181.532C356.385 181.9 355.661 182.084 354.869 182.084ZM354.869 180.212C355.541 180.212 356.077 179.988 356.477 179.54C356.885 179.092 357.089 178.5 357.089 177.764C357.089 177.02 356.885 176.428 356.477 175.988C356.077 175.54 355.541 175.316 354.869 175.316C354.189 175.316 353.645 175.536 353.237 175.976C352.837 176.416 352.637 177.012 352.637 177.764C352.637 178.508 352.837 179.104 353.237 179.552C353.645 179.992 354.189 180.212 354.869 180.212ZM362.37 180.416H365.058V182H360.318V173.576H362.37V180.416ZM370.021 182.084C369.229 182.084 368.501 181.9 367.837 181.532C367.181 181.164 366.657 180.652 366.265 179.996C365.881 179.332 365.689 178.588 365.689 177.764C365.689 176.94 365.881 176.2 366.265 175.544C366.657 174.888 367.181 174.376 367.837 174.008C368.501 173.64 369.229 173.456 370.021 173.456C370.813 173.456 371.537 173.64 372.193 174.008C372.857 174.376 373.377 174.888 373.753 175.544C374.137 176.2 374.329 176.94 374.329 177.764C374.329 178.588 374.137 179.332 373.753 179.996C373.369 180.652 372.849 181.164 372.193 181.532C371.537 181.9 370.813 182.084 370.021 182.084ZM370.021 180.212C370.693 180.212 371.229 179.988 371.629 179.54C372.037 179.092 372.241 178.5 372.241 177.764C372.241 177.02 372.037 176.428 371.629 175.988C371.229 175.54 370.693 175.316 370.021 175.316C369.341 175.316 368.797 175.536 368.389 175.976C367.989 176.416 367.789 177.012 367.789 177.764C367.789 178.508 367.989 179.104 368.389 179.552C368.797 179.992 369.341 180.212 370.021 180.212ZM379.767 182L378.015 178.82H377.523V182H375.471V173.576H378.915C379.579 173.576 380.143 173.692 380.607 173.924C381.079 174.156 381.431 174.476 381.663 174.884C381.895 175.284 382.011 175.732 382.011 176.228C382.011 176.788 381.851 177.288 381.531 177.728C381.219 178.168 380.755 178.48 380.139 178.664L382.083 182H379.767ZM377.523 177.368H378.795C379.171 177.368 379.451 177.276 379.635 177.092C379.827 176.908 379.923 176.648 379.923 176.312C379.923 175.992 379.827 175.74 379.635 175.556C379.451 175.372 379.171 175.28 378.795 175.28H377.523V177.368Z" fill="#F1F1F1"/>
</svg>
