<svg width="40" height="68" viewBox="0 0 40 68" fill="none" xmlns="http://www.w3.org/2000/svg">
<path fill-rule="evenodd" clip-rule="evenodd" d="M5 67.9856C5.33216 67.9952 5.66552 68 6 68C24.7777 68 40 52.7777 40 34C40 15.2223 24.7777 0 6 0C5.66552 0 5.33216 0.00482999 5 0.014424V67.9856Z" fill="#F7DB72" fill-opacity="0.8"/>
<path fill-rule="evenodd" clip-rule="evenodd" d="M25.414 25.586C25.7889 25.9611 25.9996 26.4697 25.9996 27C25.9996 27.5303 25.7889 28.0389 25.414 28.414L18.828 35L25.414 41.586C25.7783 41.9632 25.9799 42.4684 25.9753 42.9928C25.9708 43.5172 25.7605 44.0188 25.3896 44.3896C25.0188 44.7605 24.5172 44.9708 23.9928 44.9753C23.4684 44.9799 22.9632 44.7783 22.586 44.414L14.586 36.414C14.2111 36.0389 14.0004 35.5303 14.0004 35C14.0004 34.4697 14.2111 33.9611 14.586 33.586L22.586 25.586C22.9611 25.2111 23.4697 25.0004 24 25.0004C24.5303 25.0004 25.0389 25.2111 25.414 25.586V25.586Z" fill="#292929"/>
</svg>
