<svg width="50" height="50" viewBox="0 0 50 50" fill="none" xmlns="http://www.w3.org/2000/svg">
<circle cx="25" cy="25" r="25" fill="#F7DB72"/>
<path d="M25 14.5V15.6667V14.5ZM25 34.3333V35.5V34.3333ZM35.5 25H34.3333H35.5ZM15.6667 25H14.5H15.6667ZM32.4247 32.4247L31.5998 31.5998L32.4247 32.4247ZM18.4002 18.4002L17.5753 17.5753L18.4002 18.4002ZM32.4247 17.5753L31.5998 18.4002L32.4247 17.5753ZM18.4002 31.5998L17.5753 32.4247L18.4002 31.5998ZM29.6667 25C29.6667 26.2377 29.175 27.4247 28.2998 28.2998C27.4247 29.175 26.2377 29.6667 25 29.6667C23.7623 29.6667 22.5753 29.175 21.7002 28.2998C20.825 27.4247 20.3333 26.2377 20.3333 25C20.3333 23.7623 20.825 22.5753 21.7002 21.7002C22.5753 20.825 23.7623 20.3333 25 20.3333C26.2377 20.3333 27.4247 20.825 28.2998 21.7002C29.175 22.5753 29.6667 23.7623 29.6667 25V25Z" stroke="#292929" stroke-width="2" stroke-linecap="round" stroke-linejoin="round"/>
</svg>
