<svg width="40" height="68" viewBox="0 0 40 68" fill="none" xmlns="http://www.w3.org/2000/svg">
<path fill-rule="evenodd" clip-rule="evenodd" d="M35 67.9856C34.6678 67.9952 34.3345 68 34 68C15.2223 68 0 52.7777 0 34C0 15.2223 15.2223 0 34 0C34.3345 0 34.6678 0.00482999 35 0.014424V67.9856Z" fill="#F7DB72" fill-opacity="0.8"/>
<path fill-rule="evenodd" clip-rule="evenodd" d="M14.5859 25.586C14.211 25.9611 14.0004 26.4697 14.0004 27C14.0004 27.5303 14.211 28.0389 14.5859 28.414L21.1719 35L14.5859 41.586C14.2216 41.9632 14.02 42.4684 14.0246 42.9928C14.0291 43.5172 14.2395 44.0188 14.6103 44.3896C14.9811 44.7605 15.4827 44.9708 16.0071 44.9753C16.5315 44.9799 17.0367 44.7783 17.4139 44.414L25.4139 36.414C25.7889 36.0389 25.9995 35.5303 25.9995 35C25.9995 34.4697 25.7889 33.9611 25.4139 33.586L17.4139 25.586C17.0389 25.2111 16.5303 25.0004 15.9999 25.0004C15.4696 25.0004 14.961 25.2111 14.5859 25.586V25.586Z" fill="#292929"/>
</svg>
