<svg width="40" height="68" viewBox="0 0 40 68" fill="none" xmlns="http://www.w3.org/2000/svg">
<path fill-rule="evenodd" clip-rule="evenodd" d="M35 67.9856C34.6678 67.9952 34.3345 68 34 68C15.2223 68 0 52.7777 0 34C0 15.2223 15.2223 0 34 0C34.3345 0 34.6678 0.00482999 35 0.014424V67.9856Z" fill="#292929" fill-opacity="0.8"/>
<path fill-rule="evenodd" clip-rule="evenodd" d="M14.586 25.586C14.2111 25.9611 14.0004 26.4697 14.0004 27C14.0004 27.5303 14.2111 28.0389 14.586 28.414L21.172 35L14.586 41.586C14.2217 41.9632 14.0201 42.4684 14.0247 42.9928C14.0292 43.5172 14.2395 44.0188 14.6104 44.3896C14.9812 44.7605 15.4828 44.9708 16.0072 44.9753C16.5316 44.9799 17.0368 44.7783 17.414 44.414L25.414 36.414C25.7889 36.0389 25.9996 35.5303 25.9996 35C25.9996 34.4697 25.7889 33.9611 25.414 33.586L17.414 25.586C17.0389 25.2111 16.5303 25.0004 16 25.0004C15.4697 25.0004 14.9611 25.2111 14.586 25.586Z" fill="#F7DB72"/>
</svg>
