<svg width="50" height="50" viewBox="0 0 50 50" fill="none" xmlns="http://www.w3.org/2000/svg">
<circle cx="25" cy="25" r="25" fill="#292929"/>
<path d="M34.354 28.354C32.7172 29.0122 30.9231 29.1748 29.1946 28.8217C27.4662 28.4686 25.8796 27.6153 24.6322 26.3678C23.3847 25.1204 22.5314 23.5338 22.1783 21.8054C21.8251 20.0769 21.9878 18.2828 22.646 16.646C20.7077 17.4267 19.1014 18.8574 18.1023 20.6927C17.1033 22.528 16.7738 24.6537 17.1703 26.7054C17.5668 28.757 18.6647 30.6069 20.2756 31.9378C21.8866 33.2687 23.9104 33.9977 26 34C27.7969 34.0001 29.5527 33.4624 31.0415 32.4562C32.5303 31.45 33.684 30.0213 34.354 28.354Z" stroke="#F7DB72" stroke-width="2" stroke-linecap="round" stroke-linejoin="round"/>
</svg>
