<svg width="30" height="30" viewBox="0 0 30 30" fill="none" xmlns="http://www.w3.org/2000/svg">
<path d="M18.44 13.96L14.4438 11.295C14.2553 11.1693 14.0363 11.0971 13.81 11.0863C13.5838 11.0754 13.3588 11.1262 13.1592 11.2332C12.9596 11.3403 12.7928 11.4996 12.6767 11.6941C12.5606 11.8886 12.4995 12.111 12.5 12.3375V17.6662C12.5 17.8926 12.5614 18.1146 12.6777 18.3088C12.7939 18.5029 12.9608 18.6618 13.1603 18.7686C13.3598 18.8754 13.5846 18.9259 13.8106 18.915C14.0367 18.904 14.2555 18.8318 14.4438 18.7062L18.44 16.0412C18.6112 15.9271 18.7516 15.7724 18.8487 15.591C18.9457 15.4096 18.9965 15.207 18.9965 15.0012C18.9965 14.7955 18.9457 14.5929 18.8487 14.4115C18.7516 14.2301 18.6112 14.0754 18.44 13.9612V13.96Z" stroke="#F7DB72" stroke-width="2" stroke-linecap="round" stroke-linejoin="round"/>
<path d="M26.25 15C26.25 16.4774 25.959 17.9403 25.3936 19.3052C24.8283 20.6701 23.9996 21.9103 22.955 22.955C21.9103 23.9996 20.6701 24.8283 19.3052 25.3936C17.9403 25.959 16.4774 26.25 15 26.25C13.5226 26.25 12.0597 25.959 10.6948 25.3936C9.3299 24.8283 8.08971 23.9996 7.04505 22.955C6.00039 21.9103 5.17172 20.6701 4.60636 19.3052C4.04099 17.9403 3.75 16.4774 3.75 15C3.75 12.0163 4.93526 9.15483 7.04505 7.04505C9.15483 4.93526 12.0163 3.75 15 3.75C17.9837 3.75 20.8452 4.93526 22.955 7.04505C25.0647 9.15483 26.25 12.0163 26.25 15Z" stroke="#F7DB72" stroke-width="2" stroke-linecap="round" stroke-linejoin="round"/>
</svg>
