<svg width="30" height="30" viewBox="0 0 30 30" fill="none" xmlns="http://www.w3.org/2000/svg">
<path d="M22.955 22.955L7.04501 7.04501M22.955 22.955C25.0648 20.8452 26.2501 17.9837 26.2501 15C26.2501 12.0163 25.0648 9.15481 22.955 7.04501C20.8452 4.93521 17.9837 3.74994 15 3.74994C12.0163 3.74994 9.15481 4.93521 7.04501 7.04501L22.955 22.955ZM22.955 22.955C20.8452 25.0648 17.9837 26.2501 15 26.2501C12.0163 26.2501 9.15481 25.0648 7.04501 22.955C4.93521 20.8452 3.74994 17.9837 3.74994 15C3.74994 12.0163 4.93521 9.15481 7.04501 7.04501L22.955 22.955Z" stroke="#F7DB72" stroke-width="2" stroke-linecap="round" stroke-linejoin="round"/>
</svg>
