<svg width="736" height="268" viewBox="0 0 736 268" fill="none" xmlns="http://www.w3.org/2000/svg">
<rect y="238" width="368" height="30" fill="#423020"/>
<rect x="13" y="215" width="2" height="24" rx="1" fill="#73471F"/>
<rect x="13" y="215" width="2" height="24" rx="1" fill="#73471F"/>
<rect x="13" y="215" width="2" height="24" rx="1" fill="#73471F"/>
<rect x="33" y="215" width="2" height="24" rx="1" fill="#73471F"/>
<rect x="33" y="215" width="2" height="24" rx="1" fill="#73471F"/>
<rect x="33" y="215" width="2" height="24" rx="1" fill="#73471F"/>
<rect x="53" y="215" width="2" height="24" rx="1" fill="#73471F"/>
<rect x="53" y="215" width="2" height="24" rx="1" fill="#73471F"/>
<rect x="53" y="215" width="2" height="24" rx="1" fill="#73471F"/>
<rect x="73" y="215" width="2" height="24" rx="1" fill="#73471F"/>
<rect x="73" y="215" width="2" height="24" rx="1" fill="#73471F"/>
<rect x="73" y="215" width="2" height="24" rx="1" fill="#73471F"/>
<rect x="93" y="215" width="2" height="24" rx="1" fill="#73471F"/>
<rect x="93" y="215" width="2" height="24" rx="1" fill="#73471F"/>
<rect x="93" y="215" width="2" height="24" rx="1" fill="#73471F"/>
<rect x="113" y="215" width="2" height="24" rx="1" fill="#73471F"/>
<rect x="113" y="215" width="2" height="24" rx="1" fill="#73471F"/>
<rect x="113" y="215" width="2" height="24" rx="1" fill="#73471F"/>
<rect x="133" y="215" width="2" height="24" rx="1" fill="#73471F"/>
<rect x="133" y="215" width="2" height="24" rx="1" fill="#73471F"/>
<rect x="133" y="215" width="2" height="24" rx="1" fill="#73471F"/>
<rect x="153" y="215" width="2" height="24" rx="1" fill="#73471F"/>
<rect x="153" y="215" width="2" height="24" rx="1" fill="#73471F"/>
<rect x="153" y="215" width="2" height="24" rx="1" fill="#73471F"/>
<rect x="173" y="215" width="2" height="24" rx="1" fill="#73471F"/>
<rect x="173" y="215" width="2" height="24" rx="1" fill="#73471F"/>
<rect x="173" y="215" width="2" height="24" rx="1" fill="#73471F"/>
<rect x="193" y="215" width="2" height="24" rx="1" fill="#73471F"/>
<rect x="193" y="215" width="2" height="24" rx="1" fill="#73471F"/>
<rect x="193" y="215" width="2" height="24" rx="1" fill="#73471F"/>
<rect x="213" y="215" width="2" height="24" rx="1" fill="#73471F"/>
<rect x="213" y="215" width="2" height="24" rx="1" fill="#73471F"/>
<rect x="213" y="215" width="2" height="24" rx="1" fill="#73471F"/>
<rect x="233" y="215" width="2" height="24" rx="1" fill="#73471F"/>
<rect x="233" y="215" width="2" height="24" rx="1" fill="#73471F"/>
<rect x="233" y="215" width="2" height="24" rx="1" fill="#73471F"/>
<rect x="253" y="215" width="2" height="24" rx="1" fill="#73471F"/>
<rect x="253" y="215" width="2" height="24" rx="1" fill="#73471F"/>
<rect x="253" y="215" width="2" height="24" rx="1" fill="#73471F"/>
<rect x="273" y="215" width="2" height="24" rx="1" fill="#73471F"/>
<rect x="273" y="215" width="2" height="24" rx="1" fill="#73471F"/>
<rect x="273" y="215" width="2" height="24" rx="1" fill="#73471F"/>
<rect x="293" y="215" width="2" height="24" rx="1" fill="#73471F"/>
<rect x="293" y="215" width="2" height="24" rx="1" fill="#73471F"/>
<rect x="293" y="215" width="2" height="24" rx="1" fill="#73471F"/>
<rect x="313" y="215" width="2" height="24" rx="1" fill="#73471F"/>
<rect x="313" y="215" width="2" height="24" rx="1" fill="#73471F"/>
<rect x="313" y="215" width="2" height="24" rx="1" fill="#73471F"/>
<rect x="333" y="215" width="2" height="24" rx="1" fill="#73471F"/>
<rect x="333" y="215" width="2" height="24" rx="1" fill="#73471F"/>
<rect x="333" y="215" width="2" height="24" rx="1" fill="#73471F"/>
<rect x="353" y="215" width="2" height="24" rx="1" fill="#73471F"/>
<rect x="353" y="215" width="2" height="24" rx="1" fill="#73471F"/>
<rect x="353" y="215" width="2" height="24" rx="1" fill="#73471F"/>
<rect y="231" width="368" height="2" fill="#73471F"/>
<rect y="223" width="368" height="2" fill="#73471F"/>
<rect x="368" y="238" width="368" height="30" fill="#423020"/>
<rect x="381" y="215" width="2" height="24" rx="1" fill="#73471F"/>
<rect x="381" y="215" width="2" height="24" rx="1" fill="#73471F"/>
<rect x="381" y="215" width="2" height="24" rx="1" fill="#73471F"/>
<rect x="401" y="215" width="2" height="24" rx="1" fill="#73471F"/>
<rect x="401" y="215" width="2" height="24" rx="1" fill="#73471F"/>
<rect x="401" y="215" width="2" height="24" rx="1" fill="#73471F"/>
<rect x="421" y="215" width="2" height="24" rx="1" fill="#73471F"/>
<rect x="421" y="215" width="2" height="24" rx="1" fill="#73471F"/>
<rect x="421" y="215" width="2" height="24" rx="1" fill="#73471F"/>
<rect x="441" y="215" width="2" height="24" rx="1" fill="#73471F"/>
<rect x="441" y="215" width="2" height="24" rx="1" fill="#73471F"/>
<rect x="441" y="215" width="2" height="24" rx="1" fill="#73471F"/>
<rect x="461" y="215" width="2" height="24" rx="1" fill="#73471F"/>
<rect x="461" y="215" width="2" height="24" rx="1" fill="#73471F"/>
<rect x="461" y="215" width="2" height="24" rx="1" fill="#73471F"/>
<rect x="481" y="215" width="2" height="24" rx="1" fill="#73471F"/>
<rect x="481" y="215" width="2" height="24" rx="1" fill="#73471F"/>
<rect x="481" y="215" width="2" height="24" rx="1" fill="#73471F"/>
<rect x="501" y="215" width="2" height="24" rx="1" fill="#73471F"/>
<rect x="501" y="215" width="2" height="24" rx="1" fill="#73471F"/>
<rect x="501" y="215" width="2" height="24" rx="1" fill="#73471F"/>
<rect x="521" y="215" width="2" height="24" rx="1" fill="#73471F"/>
<rect x="521" y="215" width="2" height="24" rx="1" fill="#73471F"/>
<rect x="521" y="215" width="2" height="24" rx="1" fill="#73471F"/>
<rect x="541" y="215" width="2" height="24" rx="1" fill="#73471F"/>
<rect x="541" y="215" width="2" height="24" rx="1" fill="#73471F"/>
<rect x="541" y="215" width="2" height="24" rx="1" fill="#73471F"/>
<rect x="561" y="215" width="2" height="24" rx="1" fill="#73471F"/>
<rect x="561" y="215" width="2" height="24" rx="1" fill="#73471F"/>
<rect x="561" y="215" width="2" height="24" rx="1" fill="#73471F"/>
<rect x="581" y="215" width="2" height="24" rx="1" fill="#73471F"/>
<rect x="581" y="215" width="2" height="24" rx="1" fill="#73471F"/>
<rect x="581" y="215" width="2" height="24" rx="1" fill="#73471F"/>
<rect x="601" y="215" width="2" height="24" rx="1" fill="#73471F"/>
<rect x="601" y="215" width="2" height="24" rx="1" fill="#73471F"/>
<rect x="601" y="215" width="2" height="24" rx="1" fill="#73471F"/>
<rect x="621" y="215" width="2" height="24" rx="1" fill="#73471F"/>
<rect x="621" y="215" width="2" height="24" rx="1" fill="#73471F"/>
<rect x="621" y="215" width="2" height="24" rx="1" fill="#73471F"/>
<rect x="641" y="215" width="2" height="24" rx="1" fill="#73471F"/>
<rect x="641" y="215" width="2" height="24" rx="1" fill="#73471F"/>
<rect x="641" y="215" width="2" height="24" rx="1" fill="#73471F"/>
<rect x="661" y="215" width="2" height="24" rx="1" fill="#73471F"/>
<rect x="661" y="215" width="2" height="24" rx="1" fill="#73471F"/>
<rect x="661" y="215" width="2" height="24" rx="1" fill="#73471F"/>
<rect x="681" y="215" width="2" height="24" rx="1" fill="#73471F"/>
<rect x="681" y="215" width="2" height="24" rx="1" fill="#73471F"/>
<rect x="681" y="215" width="2" height="24" rx="1" fill="#73471F"/>
<rect x="701" y="215" width="2" height="24" rx="1" fill="#73471F"/>
<rect x="701" y="215" width="2" height="24" rx="1" fill="#73471F"/>
<rect x="701" y="215" width="2" height="24" rx="1" fill="#73471F"/>
<rect x="721" y="215" width="2" height="24" rx="1" fill="#73471F"/>
<rect x="721" y="215" width="2" height="24" rx="1" fill="#73471F"/>
<rect x="721" y="215" width="2" height="24" rx="1" fill="#73471F"/>
<rect x="368" y="231" width="368" height="2" fill="#73471F"/>
<rect x="368" y="223" width="368" height="2" fill="#73471F"/>
</svg>
