<svg width="736" height="268" viewBox="0 0 736 268" fill="none" xmlns="http://www.w3.org/2000/svg">
<rect width="368" height="268" fill="url(#paint0_linear_13_133)"/>
<path opacity="0.5" d="M38.7096 71.0963C35.7098 71.0924 32.8255 69.9388 30.6504 67.8729C28.4753 65.807 27.1747 62.986 27.0164 59.9903C26.858 56.9947 27.8539 54.0523 29.799 51.7686C31.7442 49.4848 34.4907 48.0336 37.4734 47.7134C36.5952 44.2692 37.1211 40.6172 38.9355 37.5608C40.7498 34.5043 43.7041 32.2939 47.1482 31.4156C50.5924 30.5373 54.2444 31.0632 57.3008 32.8776C60.3573 34.692 62.5677 37.6462 63.446 41.0904C65.4943 40.8052 67.5795 40.9445 69.5717 41.4997C71.5639 42.0548 73.4205 43.0139 75.0262 44.3174C76.6318 45.6208 77.9521 47.2407 78.9049 49.0763C79.8576 50.9118 80.4225 52.9238 80.5644 54.987C80.7063 57.0503 80.4222 59.1206 79.7297 61.0694C79.0371 63.0181 77.9511 64.8034 76.539 66.3144C75.1269 67.8254 73.419 69.0297 71.5216 69.8524C69.6241 70.675 67.5777 71.0985 65.5096 71.0963H38.7096Z" fill="white"/>
<path opacity="0.5" fill-rule="evenodd" clip-rule="evenodd" d="M219.553 67.0961C222.863 70.239 227.25 71.994 231.814 72H272.586C273.461 72.0009 274.333 71.9517 275.198 71.8534H327.339C333.641 71.8534 338.75 66.745 338.75 60.4434C338.75 54.1418 333.641 49.0334 327.339 49.0334H295.544C295.543 48.52 295.525 48.006 295.489 47.4923C295.274 44.3535 294.414 41.2926 292.965 38.5001C291.515 35.7076 289.507 33.2432 287.064 31.2602C284.621 29.2772 281.797 27.8181 278.766 26.9735C275.735 26.1289 272.563 25.917 269.447 26.3509C268.11 21.1111 264.748 16.6168 260.098 13.8565C255.448 11.0962 249.892 10.2961 244.652 11.6323C239.412 12.9684 234.918 16.3313 232.158 20.9811C229.398 25.631 228.597 31.1869 229.934 36.4266C225.396 36.9138 221.218 39.1216 218.258 42.5959C215.299 46.0702 213.784 50.5466 214.025 55.104C214.266 59.6614 216.244 63.9532 219.553 67.0961Z" fill="white"/>
<path d="M118 84.4581C120 83.6581 124.64 83.3381 127.2 88.4581" stroke="#666666"/>
<path d="M136 84.4581C134 83.6581 129.36 83.3381 126.8 88.4581" stroke="#666666"/>
<path d="M183 33.6667C184.667 33 188.533 32.7333 190.667 37" stroke="#666666"/>
<path d="M198 33.6667C196.333 33 192.467 32.7333 190.333 37" stroke="#666666"/>
<rect x="368" width="368" height="268" fill="url(#paint1_linear_13_133)"/>
<path opacity="0.5" d="M629.71 73.0963C626.71 73.0924 623.826 71.9388 621.65 69.8729C619.475 67.807 618.175 64.986 618.016 61.9903C617.858 58.9947 618.854 56.0523 620.799 53.7686C622.744 51.4848 625.491 50.0336 628.473 49.7134C627.595 46.2692 628.121 42.6172 629.935 39.5608C631.75 36.5043 634.704 34.2939 638.148 33.4156C641.592 32.5373 645.244 33.0632 648.301 34.8776C651.357 36.692 653.568 39.6462 654.446 43.0904C656.494 42.8052 658.579 42.9445 660.572 43.4997C662.564 44.0548 664.421 45.0139 666.026 46.3174C667.632 47.6208 668.952 49.2407 669.905 51.0763C670.858 52.9118 671.423 54.9238 671.564 56.987C671.706 59.0503 671.422 61.1206 670.73 63.0694C670.037 65.0181 668.951 66.8034 667.539 68.3144C666.127 69.8254 664.419 71.0297 662.522 71.8524C660.624 72.675 658.578 73.0985 656.51 73.0963H629.71Z" fill="white"/>
<path opacity="0.5" fill-rule="evenodd" clip-rule="evenodd" d="M392.553 109.096C395.863 112.239 400.25 113.994 404.814 114H445.586C446.461 114.001 447.333 113.952 448.198 113.853H500.339C506.641 113.853 511.75 108.745 511.75 102.443C511.75 96.1418 506.641 91.0334 500.339 91.0334H468.544C468.543 90.52 468.525 90.006 468.489 89.4923C468.274 86.3535 467.414 83.2926 465.965 80.5001C464.515 77.7076 462.507 75.2432 460.064 73.2602C457.621 71.2772 454.797 69.8181 451.766 68.9735C448.735 68.1289 445.563 67.917 442.447 68.3509C441.11 63.1111 437.748 58.6168 433.098 55.8565C428.448 53.0962 422.892 52.2961 417.652 53.6323C412.412 54.9684 407.918 58.3313 405.158 62.9811C402.398 67.631 401.597 73.1869 402.934 78.4266C398.396 78.9138 394.218 81.1216 391.258 84.5959C388.299 88.0702 386.784 92.5466 387.025 97.104C387.266 101.661 389.244 105.953 392.553 109.096Z" fill="white"/>
<path d="M637 97.4581C639 96.6581 643.64 96.3381 646.2 101.458" stroke="#666666"/>
<path d="M655 97.4581C653 96.6581 648.36 96.3381 645.8 101.458" stroke="#666666"/>
<path d="M520 63.3817C521.667 62.7151 525.533 62.4484 527.667 66.7151" stroke="#666666"/>
<path d="M535 63.3817C533.333 62.7151 529.467 62.4484 527.333 66.7151" stroke="#666666"/>
<defs>
<linearGradient id="paint0_linear_13_133" x1="184" y1="0" x2="184" y2="268" gradientUnits="userSpaceOnUse">
<stop stop-color="#56BDFF"/>
<stop offset="1" stop-color="white"/>
</linearGradient>
<linearGradient id="paint1_linear_13_133" x1="552" y1="0" x2="552" y2="268" gradientUnits="userSpaceOnUse">
<stop stop-color="#56BDFF"/>
<stop offset="1" stop-color="white"/>
</linearGradient>
</defs>
</svg>
