<svg width="736" height="268" viewBox="0 0 736 268" fill="none" xmlns="http://www.w3.org/2000/svg">
<path d="M248 191C248 168.909 265.909 151 288 151H295C317.091 151 335 168.909 335 191V268H248V191Z" fill="url(#paint0_linear_19_28)"/>
<path d="M240 226C240 213.297 250.297 203 263 203V203C275.703 203 286 213.297 286 226V268H240V226Z" fill="url(#paint1_linear_19_28)"/>
<path d="M67 208.5C67 187.237 84.237 170 105.5 170V170C126.763 170 144 187.237 144 208.5V268H67V208.5Z" fill="url(#paint2_linear_19_28)"/>
<path d="M382 182C382 168.193 393.193 157 407 157V157C420.807 157 432 168.193 432 182V268H382V182Z" fill="url(#paint3_linear_19_28)"/>
<path d="M418 195.5C418 181.417 429.417 170 443.5 170V170C457.583 170 469 181.417 469 195.5V268H418V195.5Z" fill="url(#paint4_linear_19_28)"/>
<path d="M451 223.5C451 209.417 462.417 198 476.5 198V198C490.583 198 502 209.417 502 223.5V268H451V223.5Z" fill="url(#paint5_linear_19_28)"/>
<path d="M580 194C580 171.909 597.909 154 620 154H627C649.091 154 667 171.909 667 194V271H580V194Z" fill="url(#paint6_linear_19_28)"/>
<path d="M557 242C557 229.297 567.297 219 580 219V219C592.703 219 603 229.297 603 242V284H557V242Z" fill="url(#paint7_linear_19_28)"/>
<path d="M642 211C642 198.297 652.297 188 665 188V188C677.703 188 688 198.297 688 211V268H642V211Z" fill="url(#paint8_linear_19_28)"/>
<path d="M14 148C14 125.909 31.9086 108 54 108H61C83.0914 108 101 125.909 101 148V268H14V148Z" fill="url(#paint9_linear_19_28)"/>
<defs>
<linearGradient id="paint0_linear_19_28" x1="291.5" y1="151" x2="291.5" y2="268" gradientUnits="userSpaceOnUse">
<stop stop-color="#143145"/>
<stop offset="1" stop-color="#37729D"/>
</linearGradient>
<linearGradient id="paint1_linear_19_28" x1="263" y1="203" x2="263" y2="268" gradientUnits="userSpaceOnUse">
<stop stop-color="#143145"/>
<stop offset="1" stop-color="#37729D"/>
</linearGradient>
<linearGradient id="paint2_linear_19_28" x1="105.5" y1="170" x2="105.5" y2="268" gradientUnits="userSpaceOnUse">
<stop stop-color="#143145"/>
<stop offset="1" stop-color="#37729D"/>
</linearGradient>
<linearGradient id="paint3_linear_19_28" x1="407" y1="157" x2="407" y2="268" gradientUnits="userSpaceOnUse">
<stop stop-color="#143246"/>
<stop offset="1" stop-color="#37729D" stop-opacity="0"/>
</linearGradient>
<linearGradient id="paint4_linear_19_28" x1="443.5" y1="170" x2="443.5" y2="268" gradientUnits="userSpaceOnUse">
<stop stop-color="#143246"/>
<stop offset="1" stop-color="#37729D" stop-opacity="0"/>
</linearGradient>
<linearGradient id="paint5_linear_19_28" x1="476.5" y1="198" x2="476.5" y2="268" gradientUnits="userSpaceOnUse">
<stop stop-color="#143246"/>
<stop offset="1" stop-color="#37729D" stop-opacity="0"/>
</linearGradient>
<linearGradient id="paint6_linear_19_28" x1="623.5" y1="154" x2="623.5" y2="271" gradientUnits="userSpaceOnUse">
<stop stop-color="#143246"/>
<stop offset="1" stop-color="#37729D" stop-opacity="0"/>
</linearGradient>
<linearGradient id="paint7_linear_19_28" x1="580" y1="219" x2="580" y2="284" gradientUnits="userSpaceOnUse">
<stop stop-color="#143246"/>
<stop offset="1" stop-color="#37729D" stop-opacity="0"/>
</linearGradient>
<linearGradient id="paint8_linear_19_28" x1="665" y1="188" x2="665" y2="268" gradientUnits="userSpaceOnUse">
<stop stop-color="#143246"/>
<stop offset="1" stop-color="#37729D" stop-opacity="0"/>
</linearGradient>
<linearGradient id="paint9_linear_19_28" x1="57.5" y1="108" x2="57.5" y2="268" gradientUnits="userSpaceOnUse">
<stop stop-color="#153348"/>
<stop offset="1" stop-color="#37729D" stop-opacity="0"/>
</linearGradient>
</defs>
</svg>
