<svg width="736" height="268" viewBox="0 0 736 268" fill="none" xmlns="http://www.w3.org/2000/svg">
<rect width="368" height="268" fill="url(#paint0_linear_19_3)"/>
<rect x="368" width="368" height="268" fill="url(#paint1_linear_19_3)"/>
<rect x="444.104" y="26.0761" width="1" height="1" transform="rotate(47.302 444.104 26.0761)" fill="white" fill-opacity="0.6"/>
<rect x="475.718" y="26.0761" width="3.16142" height="3.16142" transform="rotate(47.302 475.718 26.0761)" fill="white" fill-opacity="0.6"/>
<rect x="454.642" y="5" width="1.0538" height="1.0538" transform="rotate(47.302 454.642 5)" fill="white" fill-opacity="0.6"/>
<rect x="454.642" y="57.6902" width="1.0538" height="1.0538" transform="rotate(47.302 454.642 57.6902)" fill="white" fill-opacity="0.6"/>
<rect x="475.718" y="5" width="1.0538" height="1.0538" transform="rotate(47.302 475.718 5)" fill="white" fill-opacity="0.6"/>
<rect x="423.028" y="26.0761" width="1.0538" height="1.0538" transform="rotate(47.302 423.028 26.0761)" fill="white" fill-opacity="0.6"/>
<rect x="454.642" y="99.8424" width="1.0538" height="1.0538" transform="rotate(47.302 454.642 99.8424)" fill="white" fill-opacity="0.6"/>
<rect x="401.952" y="5" width="1.0538" height="1.0538" transform="rotate(47.302 401.952 5)" fill="white" fill-opacity="0.6"/>
<rect x="401.952" y="89.3044" width="1.0538" height="1.0538" transform="rotate(47.302 401.952 89.3044)" fill="white" fill-opacity="0.6"/>
<rect x="486.256" y="152.533" width="1.0538" height="1.0538" transform="rotate(47.302 486.256 152.533)" fill="white" fill-opacity="0.6"/>
<rect x="538.946" y="26.0761" width="1.0538" height="1.0538" transform="rotate(47.302 538.946 26.0761)" fill="white" fill-opacity="0.6"/>
<rect x="496.794" y="47.1522" width="1.0538" height="1.0538" transform="rotate(47.302 496.794 47.1522)" fill="white" fill-opacity="0.6"/>
<rect x="591.636" y="15.538" width="1.0538" height="1.0538" transform="rotate(47.302 591.636 15.538)" fill="white" fill-opacity="0.6"/>
<rect x="486.256" y="89.3044" width="1.0538" height="1.0538" transform="rotate(47.302 486.256 89.3044)" fill="white" fill-opacity="0.6"/>
<rect x="560.022" y="57.6902" width="1.0538" height="1.0538" transform="rotate(47.302 560.022 57.6902)" fill="white" fill-opacity="0.6"/>
<rect x="538.946" y="120.919" width="1.0538" height="1.0538" transform="rotate(47.302 538.946 120.919)" fill="white" fill-opacity="0.6"/>
<rect x="644.326" y="5" width="1.0538" height="1.0538" transform="rotate(47.302 644.326 5)" fill="white" fill-opacity="0.6"/>
<rect x="581.098" y="89.3044" width="1.0538" height="1.0538" transform="rotate(47.302 581.098 89.3044)" fill="white" fill-opacity="0.6"/>
<rect x="612.712" y="47.1522" width="1.0538" height="1.0538" transform="rotate(47.302 612.712 47.1522)" fill="white" fill-opacity="0.6"/>
<rect x="475.718" y="110.381" width="1.0538" height="1.0538" transform="rotate(47.302 475.718 110.381)" fill="white" fill-opacity="0.6"/>
<rect x="538.946" y="5" width="1.0538" height="1.0538" transform="rotate(47.302 538.946 5)" fill="white" fill-opacity="0.6"/>
<rect x="423.028" y="57.6902" width="1.0538" height="1.0538" transform="rotate(47.302 423.028 57.6902)" fill="white" fill-opacity="0.6"/>
<rect x="380.875" y="47.1522" width="1.0538" height="1.0538" transform="rotate(47.302 380.875 47.1522)" fill="white" fill-opacity="0.6"/>
<rect x="380.875" y="110.381" width="1.0538" height="1.0538" transform="rotate(47.302 380.875 110.381)" fill="white" fill-opacity="0.6"/>
<rect x="644.326" y="26.0761" width="1.0538" height="1.0538" transform="rotate(47.302 644.326 26.0761)" fill="white" fill-opacity="0.6"/>
<rect x="507.332" y="68.2283" width="1.0538" height="1.0538" transform="rotate(47.302 507.332 68.2283)" fill="white" fill-opacity="0.6"/>
<rect x="549.484" y="141.995" width="1.0538" height="1.0538" transform="rotate(47.302 549.484 141.995)" fill="white" fill-opacity="0.6"/>
<rect x="496.794" y="26.0761" width="1.0538" height="1.0538" transform="rotate(47.302 496.794 26.0761)" fill="white" fill-opacity="0.6"/>
<rect x="454.642" y="78.7664" width="1.0538" height="1.0538" transform="rotate(47.302 454.642 78.7664)" fill="white" fill-opacity="0.6"/>
<rect x="612.712" y="141.995" width="1.0538" height="1.0538" transform="rotate(47.302 612.712 141.995)" fill="white" fill-opacity="0.6"/>
<rect x="560.022" y="110.381" width="1.0538" height="1.0538" transform="rotate(47.302 560.022 110.381)" fill="white" fill-opacity="0.6"/>
<rect x="475.718" y="68.2283" width="3.16142" height="3.16142" transform="rotate(47.302 475.718 68.2283)" fill="white" fill-opacity="0.6"/>
<rect x="433.565" y="78.7664" width="1" height="1" transform="rotate(47.302 433.565 78.7664)" fill="white" fill-opacity="0.6"/>
<rect x="549.484" y="89.3044" width="1" height="1" transform="rotate(47.302 549.484 89.3044)" fill="white" fill-opacity="0.6"/>
<rect x="581.098" y="47.1522" width="3.16142" height="3.16142" transform="rotate(47.302 581.098 47.1522)" fill="white" fill-opacity="0.6"/>
<rect x="612.712" y="15.538" width="3.16142" height="3.16142" transform="rotate(47.302 612.712 15.538)" fill="white" fill-opacity="0.6"/>
<rect x="644.326" y="47.1522" width="1" height="1" transform="rotate(47.302 644.326 47.1522)" fill="white" fill-opacity="0.6"/>
<rect x="612.712" y="120.919" width="3.16142" height="3.16142" transform="rotate(47.302 612.712 120.919)" fill="white" fill-opacity="0.6"/>
<rect x="517.87" y="89.3044" width="3.16142" height="3.16142" transform="rotate(47.302 517.87 89.3044)" fill="white" fill-opacity="0.6"/>
<rect x="665.403" y="131.457" width="1" height="1" transform="rotate(47.302 665.403 131.457)" fill="white" fill-opacity="0.6"/>
<rect x="560.022" y="15.538" width="1" height="1" transform="rotate(47.302 560.022 15.538)" fill="white" fill-opacity="0.6"/>
<rect x="401.952" y="47.1522" width="3.16142" height="3.16142" transform="rotate(47.302 401.952 47.1522)" fill="white" fill-opacity="0.6"/>
<rect x="391.414" y="15.538" width="1" height="1" transform="rotate(47.302 391.414 15.538)" fill="white" fill-opacity="0.6"/>
<rect x="728.631" y="131.457" width="3.16142" height="3.16142" transform="rotate(47.302 728.631 131.457)" fill="white" fill-opacity="0.6"/>
<rect x="677.017" y="78.7664" width="1" height="1" transform="rotate(47.302 677.017 78.7664)" fill="white" fill-opacity="0.6"/>
<rect x="675.941" y="26.0761" width="3.16142" height="3.16142" transform="rotate(47.302 675.941 26.0761)" fill="white" fill-opacity="0.6"/>
<rect x="728.631" y="57.6902" width="3.16142" height="3.16142" transform="rotate(47.302 728.631 57.6902)" fill="white" fill-opacity="0.6"/>
<rect x="728.323" y="89" width="1" height="1" transform="rotate(47.302 728.323 89)" fill="white" fill-opacity="0.6"/>
<rect x="612.563" y="78.7634" width="1" height="1" transform="rotate(45 612.563 78.7634)" fill="white" fill-opacity="0.6"/>
<rect x="496.644" y="120.916" width="1" height="1" transform="rotate(45 496.644 120.916)" fill="white" fill-opacity="0.6"/>
<rect x="380.726" y="78.7634" width="1" height="1" transform="rotate(45 380.726 78.7634)" fill="white" fill-opacity="0.6"/>
<rect x="528.258" y="47.1492" width="1" height="1" transform="rotate(45 528.258 47.1492)" fill="white" fill-opacity="0.6"/>
<rect x="707.405" y="15.535" width="1" height="1" transform="rotate(45 707.405 15.535)" fill="white" fill-opacity="0.6"/>
<rect x="707.405" y="120.916" width="1" height="1" transform="rotate(45 707.405 120.916)" fill="white" fill-opacity="0.6"/>
<rect x="74.1038" y="26.0761" width="1" height="1" transform="rotate(47.302 74.1038 26.0761)" fill="white" fill-opacity="0.6"/>
<rect x="105.718" y="26.0761" width="3.16142" height="3.16142" transform="rotate(47.302 105.718 26.0761)" fill="white" fill-opacity="0.6"/>
<rect x="84.642" y="5" width="1.0538" height="1.0538" transform="rotate(47.302 84.642 5)" fill="white" fill-opacity="0.6"/>
<rect x="84.642" y="57.6902" width="1.0538" height="1.0538" transform="rotate(47.302 84.642 57.6902)" fill="white" fill-opacity="0.6"/>
<rect x="105.718" y="5" width="1.0538" height="1.0538" transform="rotate(47.302 105.718 5)" fill="white" fill-opacity="0.6"/>
<rect x="53.0276" y="26.0761" width="1.0538" height="1.0538" transform="rotate(47.302 53.0276 26.0761)" fill="white" fill-opacity="0.6"/>
<rect x="84.642" y="99.8424" width="1.0538" height="1.0538" transform="rotate(47.302 84.642 99.8424)" fill="white" fill-opacity="0.6"/>
<rect x="31.9517" y="5" width="1.0538" height="1.0538" transform="rotate(47.302 31.9517 5)" fill="white" fill-opacity="0.6"/>
<rect x="31.9517" y="89.3044" width="1.0538" height="1.0538" transform="rotate(47.302 31.9517 89.3044)" fill="white" fill-opacity="0.6"/>
<rect x="116.256" y="152.533" width="1.0538" height="1.0538" transform="rotate(47.302 116.256 152.533)" fill="white" fill-opacity="0.6"/>
<rect x="168.946" y="26.0761" width="1.0538" height="1.0538" transform="rotate(47.302 168.946 26.0761)" fill="white" fill-opacity="0.6"/>
<rect x="126.794" y="47.1522" width="1.0538" height="1.0538" transform="rotate(47.302 126.794 47.1522)" fill="white" fill-opacity="0.6"/>
<rect x="221.636" y="15.538" width="1.0538" height="1.0538" transform="rotate(47.302 221.636 15.538)" fill="white" fill-opacity="0.6"/>
<rect x="116.256" y="89.3044" width="1.0538" height="1.0538" transform="rotate(47.302 116.256 89.3044)" fill="white" fill-opacity="0.6"/>
<rect x="190.022" y="57.6902" width="1.0538" height="1.0538" transform="rotate(47.302 190.022 57.6902)" fill="white" fill-opacity="0.6"/>
<rect x="168.946" y="120.919" width="1.0538" height="1.0538" transform="rotate(47.302 168.946 120.919)" fill="white" fill-opacity="0.6"/>
<rect x="274.327" y="5" width="1.0538" height="1.0538" transform="rotate(47.302 274.327 5)" fill="white" fill-opacity="0.6"/>
<rect x="211.098" y="89.3044" width="1.0538" height="1.0538" transform="rotate(47.302 211.098 89.3044)" fill="white" fill-opacity="0.6"/>
<rect x="242.712" y="47.1522" width="1.0538" height="1.0538" transform="rotate(47.302 242.712 47.1522)" fill="white" fill-opacity="0.6"/>
<rect x="105.718" y="110.381" width="1.0538" height="1.0538" transform="rotate(47.302 105.718 110.381)" fill="white" fill-opacity="0.6"/>
<rect x="168.946" y="5" width="1.0538" height="1.0538" transform="rotate(47.302 168.946 5)" fill="white" fill-opacity="0.6"/>
<rect x="53.0276" y="57.6902" width="1.0538" height="1.0538" transform="rotate(47.302 53.0276 57.6902)" fill="white" fill-opacity="0.6"/>
<rect x="10.8751" y="47.1522" width="1.0538" height="1.0538" transform="rotate(47.302 10.8751 47.1522)" fill="white" fill-opacity="0.6"/>
<rect x="10.8751" y="110.381" width="1.0538" height="1.0538" transform="rotate(47.302 10.8751 110.381)" fill="white" fill-opacity="0.6"/>
<rect x="274.327" y="26.0761" width="1.0538" height="1.0538" transform="rotate(47.302 274.327 26.0761)" fill="white" fill-opacity="0.6"/>
<rect x="137.332" y="68.2283" width="1.0538" height="1.0538" transform="rotate(47.302 137.332 68.2283)" fill="white" fill-opacity="0.6"/>
<rect x="179.484" y="141.995" width="1.0538" height="1.0538" transform="rotate(47.302 179.484 141.995)" fill="white" fill-opacity="0.6"/>
<rect x="126.794" y="26.0761" width="1.0538" height="1.0538" transform="rotate(47.302 126.794 26.0761)" fill="white" fill-opacity="0.6"/>
<rect x="84.642" y="78.7664" width="1.0538" height="1.0538" transform="rotate(47.302 84.642 78.7664)" fill="white" fill-opacity="0.6"/>
<rect x="242.712" y="141.995" width="1.0538" height="1.0538" transform="rotate(47.302 242.712 141.995)" fill="white" fill-opacity="0.6"/>
<rect x="190.022" y="110.381" width="1.0538" height="1.0538" transform="rotate(47.302 190.022 110.381)" fill="white" fill-opacity="0.6"/>
<rect x="105.718" y="68.2283" width="3.16142" height="3.16142" transform="rotate(47.302 105.718 68.2283)" fill="white" fill-opacity="0.6"/>
<rect x="63.5654" y="78.7664" width="1" height="1" transform="rotate(47.302 63.5654 78.7664)" fill="white" fill-opacity="0.6"/>
<rect x="179.484" y="89.3044" width="1" height="1" transform="rotate(47.302 179.484 89.3044)" fill="white" fill-opacity="0.6"/>
<rect x="211.098" y="47.1522" width="3.16142" height="3.16142" transform="rotate(47.302 211.098 47.1522)" fill="white" fill-opacity="0.6"/>
<rect x="242.712" y="15.538" width="3.16142" height="3.16142" transform="rotate(47.302 242.712 15.538)" fill="white" fill-opacity="0.6"/>
<rect x="274.327" y="47.1522" width="1" height="1" transform="rotate(47.302 274.327 47.1522)" fill="white" fill-opacity="0.6"/>
<rect x="242.712" y="120.919" width="3.16142" height="3.16142" transform="rotate(47.302 242.712 120.919)" fill="white" fill-opacity="0.6"/>
<rect x="147.87" y="89.3044" width="3.16142" height="3.16142" transform="rotate(47.302 147.87 89.3044)" fill="white" fill-opacity="0.6"/>
<rect x="295.403" y="131.457" width="1" height="1" transform="rotate(47.302 295.403 131.457)" fill="white" fill-opacity="0.6"/>
<rect x="190.022" y="15.538" width="1" height="1" transform="rotate(47.302 190.022 15.538)" fill="white" fill-opacity="0.6"/>
<rect x="31.9517" y="47.1522" width="3.16142" height="3.16142" transform="rotate(47.302 31.9517 47.1522)" fill="white" fill-opacity="0.6"/>
<rect x="21.4136" y="15.538" width="1" height="1" transform="rotate(47.302 21.4136 15.538)" fill="white" fill-opacity="0.6"/>
<rect x="358.631" y="131.457" width="3.16142" height="3.16142" transform="rotate(47.302 358.631 131.457)" fill="white" fill-opacity="0.6"/>
<rect x="307.017" y="78.7664" width="1" height="1" transform="rotate(47.302 307.017 78.7664)" fill="white" fill-opacity="0.6"/>
<rect x="305.941" y="26.0761" width="3.16142" height="3.16142" transform="rotate(47.302 305.941 26.0761)" fill="white" fill-opacity="0.6"/>
<rect x="358.631" y="57.6902" width="3.16142" height="3.16142" transform="rotate(47.302 358.631 57.6902)" fill="white" fill-opacity="0.6"/>
<rect x="358.323" y="89" width="1" height="1" transform="rotate(47.302 358.323 89)" fill="white" fill-opacity="0.6"/>
<rect x="242.563" y="78.7634" width="1" height="1" transform="rotate(45 242.563 78.7634)" fill="white" fill-opacity="0.6"/>
<rect x="126.644" y="120.916" width="1" height="1" transform="rotate(45 126.644 120.916)" fill="white" fill-opacity="0.6"/>
<rect x="10.7261" y="78.7634" width="1" height="1" transform="rotate(45 10.7261 78.7634)" fill="white" fill-opacity="0.6"/>
<rect x="158.258" y="47.1492" width="1" height="1" transform="rotate(45 158.258 47.1492)" fill="white" fill-opacity="0.6"/>
<rect x="337.405" y="15.535" width="1" height="1" transform="rotate(45 337.405 15.535)" fill="white" fill-opacity="0.6"/>
<rect x="337.405" y="120.916" width="1" height="1" transform="rotate(45 337.405 120.916)" fill="white" fill-opacity="0.6"/>
<defs>
<linearGradient id="paint0_linear_19_3" x1="184" y1="0" x2="184" y2="268" gradientUnits="userSpaceOnUse">
<stop stop-color="#000326"/>
<stop offset="1" stop-color="#4085B1"/>
</linearGradient>
<linearGradient id="paint1_linear_19_3" x1="552" y1="0" x2="552" y2="268" gradientUnits="userSpaceOnUse">
<stop stop-color="#000326"/>
<stop offset="1" stop-color="#4085B1"/>
</linearGradient>
</defs>
</svg>
