<svg width="62" height="62" viewBox="0 0 62 62" fill="none" xmlns="http://www.w3.org/2000/svg">
<rect x="1" y="1" width="60" height="60" rx="30" fill="#FFFD01" fill-opacity="0.2" stroke="#FFFD01" stroke-width="2"/>
<path d="M25.392 25.824C25.488 24.336 26.056 23.176 27.096 22.344C28.152 21.512 29.496 21.096 31.128 21.096C32.248 21.096 33.216 21.296 34.032 21.696C34.848 22.096 35.464 22.64 35.88 23.328C36.296 24.016 36.504 24.792 36.504 25.656C36.504 26.648 36.24 27.496 35.712 28.2C35.184 28.904 34.552 29.376 33.816 29.616V29.712C34.76 30 35.496 30.528 36.024 31.296C36.552 32.048 36.816 33.016 36.816 34.2C36.816 35.144 36.6 35.984 36.168 36.72C35.736 37.456 35.096 38.04 34.248 38.472C33.4 38.888 32.384 39.096 31.2 39.096C29.472 39.096 28.048 38.656 26.928 37.776C25.824 36.88 25.232 35.6 25.152 33.936H27.792C27.856 34.784 28.184 35.48 28.776 36.024C29.368 36.552 30.168 36.816 31.176 36.816C32.152 36.816 32.904 36.552 33.432 36.024C33.96 35.48 34.224 34.784 34.224 33.936C34.224 32.816 33.864 32.024 33.144 31.56C32.44 31.08 31.352 30.84 29.88 30.84H29.256V28.584H29.904C31.2 28.568 32.184 28.352 32.856 27.936C33.544 27.52 33.888 26.864 33.888 25.968C33.888 25.2 33.64 24.592 33.144 24.144C32.648 23.68 31.944 23.448 31.032 23.448C30.136 23.448 29.44 23.68 28.944 24.144C28.448 24.592 28.152 25.152 28.056 25.824H25.392Z" fill="#FFFEB6"/>
</svg>
