<svg width="62" height="62" viewBox="0 0 62 62" fill="none" xmlns="http://www.w3.org/2000/svg">
<rect x="1" y="1" width="60" height="60" rx="30" fill="#FFFD01" fill-opacity="0.2" stroke="#FFFD01" stroke-width="2"/>
<path d="M26.952 35.28C28.488 33.952 29.696 32.864 30.576 32.016C31.472 31.152 32.216 30.256 32.808 29.328C33.4 28.4 33.696 27.472 33.696 26.544C33.696 25.584 33.464 24.832 33 24.288C32.552 23.744 31.84 23.472 30.864 23.472C29.92 23.472 29.184 23.776 28.656 24.384C28.144 24.976 27.872 25.776 27.84 26.784H25.2C25.248 24.96 25.792 23.568 26.832 22.608C27.888 21.632 29.224 21.144 30.84 21.144C32.584 21.144 33.944 21.624 34.92 22.584C35.912 23.544 36.408 24.824 36.408 26.424C36.408 27.576 36.112 28.688 35.52 29.76C34.944 30.816 34.248 31.768 33.432 32.616C32.632 33.448 31.608 34.416 30.36 35.52L29.28 36.48H36.888V38.76H25.224V36.768L26.952 35.28Z" fill="#FFFEB6"/>
</svg>
