<svg width="62" height="62" viewBox="0 0 62 62" fill="none" xmlns="http://www.w3.org/2000/svg">
<rect x="1" y="1" width="60" height="60" rx="30" fill="#FFFD01" fill-opacity="0.2" stroke="#FFFD01" stroke-width="2"/>
<path d="M35.72 23.856H27.68V28.632C28.016 28.184 28.512 27.808 29.168 27.504C29.84 27.2 30.552 27.048 31.304 27.048C32.648 27.048 33.736 27.336 34.568 27.912C35.416 28.488 36.016 29.216 36.368 30.096C36.736 30.976 36.92 31.904 36.92 32.88C36.92 34.064 36.688 35.12 36.224 36.048C35.776 36.96 35.096 37.68 34.184 38.208C33.288 38.736 32.184 39 30.872 39C29.128 39 27.728 38.568 26.672 37.704C25.616 36.84 24.984 35.696 24.776 34.272H27.44C27.616 35.024 28.008 35.624 28.616 36.072C29.224 36.504 29.984 36.72 30.896 36.72C32.032 36.72 32.88 36.376 33.44 35.688C34.016 35 34.304 34.088 34.304 32.952C34.304 31.8 34.016 30.92 33.44 30.312C32.864 29.688 32.016 29.376 30.896 29.376C30.112 29.376 29.448 29.576 28.904 29.976C28.376 30.36 27.992 30.888 27.752 31.56H25.16V21.456H35.72V23.856Z" fill="#FFFEB6"/>
</svg>
