<svg width="62" height="62" viewBox="0 0 62 62" fill="none" xmlns="http://www.w3.org/2000/svg">
<rect x="1" y="1" width="60" height="60" rx="30" fill="#FFFD01" fill-opacity="0.2" stroke="#FFFD01" stroke-width="2"/>
<path d="M27.392 29.856C25.728 29.024 24.896 27.712 24.896 25.92C24.896 25.056 25.112 24.264 25.544 23.544C25.976 22.824 26.624 22.256 27.488 21.84C28.352 21.408 29.408 21.192 30.656 21.192C31.888 21.192 32.936 21.408 33.8 21.84C34.68 22.256 35.336 22.824 35.768 23.544C36.2 24.264 36.416 25.056 36.416 25.92C36.416 26.816 36.184 27.608 35.72 28.296C35.272 28.968 34.672 29.488 33.92 29.856C34.832 30.192 35.552 30.744 36.08 31.512C36.608 32.264 36.872 33.152 36.872 34.176C36.872 35.216 36.608 36.136 36.08 36.936C35.552 37.736 34.816 38.352 33.872 38.784C32.928 39.216 31.856 39.432 30.656 39.432C29.456 39.432 28.384 39.216 27.44 38.784C26.512 38.352 25.784 37.736 25.256 36.936C24.728 36.136 24.464 35.216 24.464 34.176C24.464 33.136 24.728 32.24 25.256 31.488C25.784 30.736 26.496 30.192 27.392 29.856ZM33.8 26.256C33.8 25.36 33.52 24.672 32.96 24.192C32.4 23.712 31.632 23.472 30.656 23.472C29.696 23.472 28.936 23.712 28.376 24.192C27.816 24.672 27.536 25.368 27.536 26.28C27.536 27.08 27.824 27.736 28.4 28.248C28.992 28.744 29.744 28.992 30.656 28.992C31.568 28.992 32.32 28.736 32.912 28.224C33.504 27.712 33.8 27.056 33.8 26.256ZM30.656 31.056C29.6 31.056 28.736 31.32 28.064 31.848C27.408 32.36 27.08 33.104 27.08 34.08C27.08 34.992 27.4 35.736 28.04 36.312C28.68 36.872 29.552 37.152 30.656 37.152C31.744 37.152 32.6 36.864 33.224 36.288C33.864 35.712 34.184 34.976 34.184 34.08C34.184 33.12 33.856 32.376 33.2 31.848C32.56 31.32 31.712 31.056 30.656 31.056Z" fill="#FFFEB6"/>
</svg>
