<svg width="62" height="62" viewBox="0 0 62 62" fill="none" xmlns="http://www.w3.org/2000/svg">
<rect x="1" y="1" width="60" height="60" rx="30" fill="#FF9600" fill-opacity="0.2" stroke="#FF9600" stroke-width="2"/>
<path d="M21.176 25.516C21.176 24.1533 21.568 23.0893 22.352 22.324C23.1547 21.54 24.1813 21.148 25.432 21.148C26.6827 21.148 27.7 21.54 28.484 22.324C29.2867 23.0893 29.688 24.1533 29.688 25.516C29.688 26.8787 29.2867 27.952 28.484 28.736C27.7 29.52 26.6827 29.912 25.432 29.912C24.1813 29.912 23.1547 29.52 22.352 28.736C21.568 27.952 21.176 26.8787 21.176 25.516ZM38.256 21.512L27.084 41H23.948L35.12 21.512H38.256ZM25.432 23.08C24.256 23.08 23.668 23.892 23.668 25.516C23.668 27.1587 24.256 27.98 25.432 27.98C25.992 27.98 26.4213 27.784 26.72 27.392C27.0373 26.9813 27.196 26.356 27.196 25.516C27.196 23.892 26.608 23.08 25.432 23.08ZM32.572 36.968C32.572 35.6053 32.964 34.5413 33.748 33.776C34.5507 32.992 35.5773 32.6 36.828 32.6C38.06 32.6 39.068 32.992 39.852 33.776C40.6547 34.5413 41.056 35.6053 41.056 36.968C41.056 38.3307 40.6547 39.404 39.852 40.188C39.068 40.972 38.06 41.364 36.828 41.364C35.5773 41.364 34.5507 40.972 33.748 40.188C32.964 39.404 32.572 38.3307 32.572 36.968ZM36.8 34.532C35.624 34.532 35.036 35.344 35.036 36.968C35.036 38.592 35.624 39.404 36.8 39.404C37.976 39.404 38.564 38.592 38.564 36.968C38.564 35.344 37.976 34.532 36.8 34.532Z" fill="#FFDCAA"/>
</svg>
