<svg width="62" height="62" viewBox="0 0 62 62" fill="none" xmlns="http://www.w3.org/2000/svg">
<rect x="1" y="1" width="60" height="60" rx="30" fill="#FF9600" fill-opacity="0.2" stroke="#FF9600" stroke-width="2"/>
<path d="M21.036 31.228C21.036 29.324 21.4747 27.616 22.352 26.104C23.248 24.592 24.452 23.416 25.964 22.576C27.4947 21.7173 29.1653 21.288 30.976 21.288C33.048 21.288 34.8867 21.8013 36.492 22.828C38.116 23.836 39.292 25.2733 40.02 27.14H36.184C35.68 26.1133 34.98 25.348 34.084 24.844C33.188 24.34 32.152 24.088 30.976 24.088C29.688 24.088 28.54 24.3773 27.532 24.956C26.524 25.5347 25.7307 26.3653 25.152 27.448C24.592 28.5307 24.312 29.7907 24.312 31.228C24.312 32.6653 24.592 33.9253 25.152 35.008C25.7307 36.0907 26.524 36.9307 27.532 37.528C28.54 38.1067 29.688 38.396 30.976 38.396C32.152 38.396 33.188 38.144 34.084 37.64C34.98 37.136 35.68 36.3707 36.184 35.344H40.02C39.292 37.2107 38.116 38.648 36.492 39.656C34.8867 40.664 33.048 41.168 30.976 41.168C29.1467 41.168 27.476 40.748 25.964 39.908C24.452 39.0493 23.248 37.864 22.352 36.352C21.4747 34.84 21.036 33.132 21.036 31.228Z" fill="#FFDCAA"/>
</svg>
