<svg width="62" height="62" viewBox="0 0 62 62" fill="none" xmlns="http://www.w3.org/2000/svg">
<rect x="1" y="1" width="60" height="60" rx="30" fill="#FFFD01" fill-opacity="0.2" stroke="#FFFD01" stroke-width="2"/>
<path d="M27.848 34.248C28.008 35.048 28.352 35.656 28.88 36.072C29.408 36.488 30.12 36.696 31.016 36.696C32.152 36.696 32.984 36.248 33.512 35.352C34.04 34.456 34.304 32.928 34.304 30.768C33.92 31.312 33.376 31.736 32.672 32.04C31.984 32.328 31.232 32.472 30.416 32.472C29.376 32.472 28.432 32.264 27.584 31.848C26.736 31.416 26.064 30.784 25.568 29.952C25.088 29.104 24.848 28.08 24.848 26.88C24.848 25.12 25.36 23.72 26.384 22.68C27.424 21.624 28.848 21.096 30.656 21.096C32.832 21.096 34.376 21.824 35.288 23.28C36.216 24.72 36.68 26.936 36.68 29.928C36.68 31.992 36.504 33.68 36.152 34.992C35.816 36.304 35.224 37.296 34.376 37.968C33.528 38.64 32.352 38.976 30.848 38.976C29.136 38.976 27.816 38.528 26.888 37.632C25.96 36.736 25.44 35.608 25.328 34.248H27.848ZM30.896 30.168C31.856 30.168 32.608 29.872 33.152 29.28C33.712 28.672 33.992 27.872 33.992 26.88C33.992 25.776 33.696 24.92 33.104 24.312C32.528 23.688 31.736 23.376 30.728 23.376C29.72 23.376 28.92 23.696 28.328 24.336C27.752 24.96 27.464 25.784 27.464 26.808C27.464 27.784 27.744 28.592 28.304 29.232C28.88 29.856 29.744 30.168 30.896 30.168Z" fill="#FFFEB6"/>
</svg>
