<svg width="62" height="62" viewBox="0 0 62 62" fill="none" xmlns="http://www.w3.org/2000/svg">
<rect x="1" y="1" width="60" height="60" rx="30" fill="#FF9600" fill-opacity="0.2" stroke="#FF9600" stroke-width="2"/>
<path fill-rule="evenodd" clip-rule="evenodd" d="M30.6336 39.1186C30.3992 39.353 30.0813 39.4846 29.7498 39.4846C29.4184 39.4846 29.1005 39.353 28.8661 39.1186L21.366 31.6185C21.1316 31.3841 21 31.0662 21 30.7348C21 30.4033 21.1316 30.0854 21.366 29.851L28.8661 22.3509C29.1018 22.1232 29.4176 21.9972 29.7454 22C30.0731 22.0029 30.3866 22.1344 30.6184 22.3661C30.8501 22.5979 30.9816 22.9114 30.9845 23.2392C30.9873 23.5669 30.8613 23.8827 30.6336 24.1184L25.2673 29.4847H39.75C40.0815 29.4847 40.3995 29.6164 40.6339 29.8509C40.8683 30.0853 41 30.4032 41 30.7348C41 31.0663 40.8683 31.3842 40.6339 31.6187C40.3995 31.8531 40.0815 31.9848 39.75 31.9848H25.2673L30.6336 37.3511C30.868 37.5855 30.9996 37.9034 30.9996 38.2349C30.9996 38.5663 30.868 38.8842 30.6336 39.1186Z" fill="#FFDCAA"/>
</svg>
