<svg width="62" height="62" viewBox="0 0 62 62" fill="none" xmlns="http://www.w3.org/2000/svg">
<rect x="1" y="1" width="60" height="60" rx="30" fill="#FFFD01" fill-opacity="0.2" stroke="#FFFD01" stroke-width="2"/>
<path d="M24.44 30.024C24.44 27.256 24.904 25.096 25.832 23.544C26.776 21.976 28.392 21.192 30.68 21.192C32.968 21.192 34.576 21.976 35.504 23.544C36.448 25.096 36.92 27.256 36.92 30.024C36.92 32.824 36.448 35.016 35.504 36.6C34.576 38.168 32.968 38.952 30.68 38.952C28.392 38.952 26.776 38.168 25.832 36.6C24.904 35.016 24.44 32.824 24.44 30.024ZM34.232 30.024C34.232 28.728 34.144 27.632 33.968 26.736C33.808 25.84 33.472 25.112 32.96 24.552C32.448 23.976 31.688 23.688 30.68 23.688C29.672 23.688 28.912 23.976 28.4 24.552C27.888 25.112 27.544 25.84 27.368 26.736C27.208 27.632 27.128 28.728 27.128 30.024C27.128 31.368 27.208 32.496 27.368 33.408C27.528 34.32 27.864 35.056 28.376 35.616C28.904 36.176 29.672 36.456 30.68 36.456C31.688 36.456 32.448 36.176 32.96 35.616C33.488 35.056 33.832 34.32 33.992 33.408C34.152 32.496 34.232 31.368 34.232 30.024Z" fill="#FFFEB6"/>
</svg>
