<svg width="62" height="62" viewBox="0 0 62 62" fill="none" xmlns="http://www.w3.org/2000/svg">
<rect x="1" y="1" width="60" height="60" rx="30" fill="#FFFD01" fill-opacity="0.2" stroke="#FFFD01" stroke-width="2"/>
<path d="M33.848 25.56C33.672 24.824 33.352 24.272 32.888 23.904C32.424 23.536 31.776 23.352 30.944 23.352C29.68 23.352 28.736 23.84 28.112 24.816C27.488 25.776 27.16 27.376 27.128 29.616C27.544 28.912 28.152 28.368 28.952 27.984C29.752 27.6 30.616 27.408 31.544 27.408C32.6 27.408 33.528 27.64 34.328 28.104C35.144 28.552 35.776 29.208 36.224 30.072C36.688 30.936 36.92 31.968 36.92 33.168C36.92 34.288 36.696 35.288 36.248 36.168C35.816 37.048 35.168 37.744 34.304 38.256C33.44 38.752 32.4 39 31.184 39C29.536 39 28.24 38.64 27.296 37.92C26.368 37.184 25.712 36.152 25.328 34.824C24.96 33.496 24.776 31.84 24.776 29.856C24.776 24 26.84 21.072 30.968 21.072C32.568 21.072 33.824 21.504 34.736 22.368C35.664 23.232 36.208 24.296 36.368 25.56H33.848ZM30.944 29.712C29.968 29.712 29.136 30.008 28.448 30.6C27.776 31.176 27.44 32.016 27.44 33.12C27.44 34.224 27.752 35.104 28.376 35.76C29.016 36.4 29.904 36.72 31.04 36.72C32.048 36.72 32.84 36.408 33.416 35.784C34.008 35.16 34.304 34.328 34.304 33.288C34.304 32.2 34.016 31.336 33.44 30.696C32.88 30.04 32.048 29.712 30.944 29.712Z" fill="#FFFEB6"/>
</svg>
