<svg width="114" height="54" viewBox="0 0 114 54" fill="none" xmlns="http://www.w3.org/2000/svg">
<g filter="url(#filter0_d_3_44)">
<rect x="4" width="106" height="46" rx="23" fill="white"/>
</g>
<rect x="8" y="4" width="98" height="38" rx="19" fill="#4A66CA" fill-opacity="0.2" stroke="#4A66CA" stroke-width="2"/>
<circle cx="27" cy="23" r="15" fill="#4A66CA"/>
<path d="M67.632 19.096V22.946H72.7V23.842H67.632V28H66.596V18.2H73.316V19.096H67.632ZM75.1087 20.636H76.1027V28H75.1087V20.636ZM75.6127 19.026C75.4073 19.026 75.2347 18.956 75.0947 18.816C74.9547 18.676 74.8847 18.508 74.8847 18.312C74.8847 18.1253 74.9547 17.962 75.0947 17.822C75.2347 17.682 75.4073 17.612 75.6127 17.612C75.818 17.612 75.9907 17.682 76.1307 17.822C76.2707 17.9527 76.3407 18.1113 76.3407 18.298C76.3407 18.5033 76.2707 18.676 76.1307 18.816C75.9907 18.956 75.818 19.026 75.6127 19.026ZM79.8204 22.078C80.0538 21.5833 80.3991 21.21 80.8564 20.958C81.3231 20.706 81.8971 20.58 82.5784 20.58V21.546L82.3404 21.532C81.5658 21.532 80.9591 21.77 80.5204 22.246C80.0818 22.722 79.8624 23.3893 79.8624 24.248V28H78.8684V20.636H79.8204V22.078ZM86.4069 28.07C85.8095 28.07 85.2355 27.986 84.6849 27.818C84.1435 27.6407 83.7189 27.4213 83.4109 27.16L83.8589 26.376C84.1669 26.6187 84.5542 26.8193 85.0209 26.978C85.4875 27.1273 85.9729 27.202 86.4769 27.202C87.1489 27.202 87.6435 27.0993 87.9609 26.894C88.2875 26.6793 88.4509 26.3807 88.4509 25.998C88.4509 25.7273 88.3622 25.5173 88.1849 25.368C88.0075 25.2093 87.7835 25.0927 87.5129 25.018C87.2422 24.934 86.8829 24.8547 86.4349 24.78C85.8375 24.668 85.3569 24.556 84.9929 24.444C84.6289 24.3227 84.3162 24.122 84.0549 23.842C83.8029 23.562 83.6769 23.1747 83.6769 22.68C83.6769 22.064 83.9335 21.56 84.4469 21.168C84.9602 20.776 85.6742 20.58 86.5889 20.58C87.0649 20.58 87.5409 20.6453 88.0169 20.776C88.4929 20.8973 88.8849 21.0607 89.1929 21.266L88.7589 22.064C88.1522 21.644 87.4289 21.434 86.5889 21.434C85.9542 21.434 85.4735 21.546 85.1469 21.77C84.8295 21.994 84.6709 22.288 84.6709 22.652C84.6709 22.932 84.7595 23.156 84.9369 23.324C85.1235 23.492 85.3522 23.618 85.6229 23.702C85.8935 23.7767 86.2669 23.856 86.7429 23.94C87.3309 24.052 87.8022 24.164 88.1569 24.276C88.5115 24.388 88.8149 24.5793 89.0669 24.85C89.3189 25.1207 89.4449 25.494 89.4449 25.97C89.4449 26.614 89.1742 27.1273 88.6329 27.51C88.1009 27.8833 87.3589 28.07 86.4069 28.07ZM95.1605 27.552C94.9738 27.72 94.7405 27.8507 94.4605 27.944C94.1898 28.028 93.9052 28.07 93.6065 28.07C92.9158 28.07 92.3838 27.8833 92.0105 27.51C91.6372 27.1367 91.4505 26.6093 91.4505 25.928V21.476H90.1345V20.636H91.4505V19.026H92.4445V20.636H94.6845V21.476H92.4445V25.872C92.4445 26.3107 92.5518 26.6467 92.7665 26.88C92.9905 27.104 93.3078 27.216 93.7185 27.216C93.9238 27.216 94.1198 27.1833 94.3065 27.118C94.5025 27.0527 94.6705 26.9593 94.8105 26.838L95.1605 27.552Z" fill="#4A66CA"/>
<defs>
<filter id="filter0_d_3_44" x="0" y="0" width="114" height="54" filterUnits="userSpaceOnUse" color-interpolation-filters="sRGB">
<feFlood flood-opacity="0" result="BackgroundImageFix"/>
<feColorMatrix in="SourceAlpha" type="matrix" values="0 0 0 0 0 0 0 0 0 0 0 0 0 0 0 0 0 0 127 0" result="hardAlpha"/>
<feOffset dy="4"/>
<feGaussianBlur stdDeviation="2"/>
<feComposite in2="hardAlpha" operator="out"/>
<feColorMatrix type="matrix" values="0 0 0 0 0 0 0 0 0 0 0 0 0 0 0 0 0 0 0.25 0"/>
<feBlend mode="normal" in2="BackgroundImageFix" result="effect1_dropShadow_3_44"/>
<feBlend mode="normal" in="SourceGraphic" in2="effect1_dropShadow_3_44" result="shape"/>
</filter>
</defs>
</svg>
