<svg width="114" height="54" viewBox="0 0 114 54" fill="none" xmlns="http://www.w3.org/2000/svg">
<g filter="url(#filter0_d_7_2)">
<rect x="4" width="106" height="46" rx="23" fill="white"/>
</g>
<rect x="8" y="4" width="98" height="38" rx="19" fill="#4A66CA" fill-opacity="0.2" stroke="#4A66CA" stroke-width="2"/>
<circle cx="87" cy="23" r="15" fill="#4A66CA"/>
<path d="M16.596 18.2H17.632V27.104H23.12V28H16.596V18.2ZM27.2335 20.58C28.1948 20.58 28.9322 20.8227 29.4455 21.308C29.9588 21.784 30.2155 22.4933 30.2155 23.436V28H29.2635V26.852C29.0395 27.2347 28.7082 27.5333 28.2695 27.748C27.8402 27.9627 27.3268 28.07 26.7295 28.07C25.9082 28.07 25.2548 27.874 24.7695 27.482C24.2842 27.09 24.0415 26.572 24.0415 25.928C24.0415 25.3027 24.2655 24.7987 24.7135 24.416C25.1708 24.0333 25.8942 23.842 26.8835 23.842H29.2215V23.394C29.2215 22.7593 29.0442 22.2787 28.6895 21.952C28.3348 21.616 27.8168 21.448 27.1355 21.448C26.6688 21.448 26.2208 21.5273 25.7915 21.686C25.3622 21.8353 24.9935 22.0453 24.6855 22.316L24.2375 21.574C24.6108 21.2567 25.0588 21.014 25.5815 20.846C26.1042 20.6687 26.6548 20.58 27.2335 20.58ZM26.8835 27.286C27.4435 27.286 27.9242 27.16 28.3255 26.908C28.7268 26.6467 29.0255 26.2733 29.2215 25.788V24.584H26.9115C25.6515 24.584 25.0215 25.0227 25.0215 25.9C25.0215 26.3293 25.1848 26.67 25.5115 26.922C25.8382 27.1647 26.2955 27.286 26.8835 27.286ZM34.8893 28.07C34.292 28.07 33.718 27.986 33.1673 27.818C32.626 27.6407 32.2013 27.4213 31.8933 27.16L32.3413 26.376C32.6493 26.6187 33.0366 26.8193 33.5033 26.978C33.97 27.1273 34.4553 27.202 34.9593 27.202C35.6313 27.202 36.126 27.0993 36.4433 26.894C36.77 26.6793 36.9333 26.3807 36.9333 25.998C36.9333 25.7273 36.8446 25.5173 36.6673 25.368C36.49 25.2093 36.266 25.0927 35.9953 25.018C35.7246 24.934 35.3653 24.8547 34.9173 24.78C34.32 24.668 33.8393 24.556 33.4753 24.444C33.1113 24.3227 32.7986 24.122 32.5373 23.842C32.2853 23.562 32.1593 23.1747 32.1593 22.68C32.1593 22.064 32.416 21.56 32.9293 21.168C33.4426 20.776 34.1566 20.58 35.0713 20.58C35.5473 20.58 36.0233 20.6453 36.4993 20.776C36.9753 20.8973 37.3673 21.0607 37.6753 21.266L37.2413 22.064C36.6346 21.644 35.9113 21.434 35.0713 21.434C34.4366 21.434 33.956 21.546 33.6293 21.77C33.312 21.994 33.1533 22.288 33.1533 22.652C33.1533 22.932 33.242 23.156 33.4193 23.324C33.606 23.492 33.8346 23.618 34.1053 23.702C34.376 23.7767 34.7493 23.856 35.2253 23.94C35.8133 24.052 36.2846 24.164 36.6393 24.276C36.994 24.388 37.2973 24.5793 37.5493 24.85C37.8013 25.1207 37.9273 25.494 37.9273 25.97C37.9273 26.614 37.6566 27.1273 37.1153 27.51C36.5833 27.8833 35.8413 28.07 34.8893 28.07ZM43.6429 27.552C43.4562 27.72 43.2229 27.8507 42.9429 27.944C42.6722 28.028 42.3876 28.07 42.0889 28.07C41.3982 28.07 40.8662 27.8833 40.4929 27.51C40.1196 27.1367 39.9329 26.6093 39.9329 25.928V21.476H38.6169V20.636H39.9329V19.026H40.9269V20.636H43.1669V21.476H40.9269V25.872C40.9269 26.3107 41.0342 26.6467 41.2489 26.88C41.4729 27.104 41.7902 27.216 42.2009 27.216C42.4062 27.216 42.6022 27.1833 42.7889 27.118C42.9849 27.0527 43.1529 26.9593 43.2929 26.838L43.6429 27.552Z" fill="#4A66CA"/>
<defs>
<filter id="filter0_d_7_2" x="0" y="0" width="114" height="54" filterUnits="userSpaceOnUse" color-interpolation-filters="sRGB">
<feFlood flood-opacity="0" result="BackgroundImageFix"/>
<feColorMatrix in="SourceAlpha" type="matrix" values="0 0 0 0 0 0 0 0 0 0 0 0 0 0 0 0 0 0 127 0" result="hardAlpha"/>
<feOffset dy="4"/>
<feGaussianBlur stdDeviation="2"/>
<feComposite in2="hardAlpha" operator="out"/>
<feColorMatrix type="matrix" values="0 0 0 0 0 0 0 0 0 0 0 0 0 0 0 0 0 0 0.25 0"/>
<feBlend mode="normal" in2="BackgroundImageFix" result="effect1_dropShadow_7_2"/>
<feBlend mode="normal" in="SourceGraphic" in2="effect1_dropShadow_7_2" result="shape"/>
</filter>
</defs>
</svg>
