<svg width="114" height="54" viewBox="0 0 114 54" fill="none" xmlns="http://www.w3.org/2000/svg">
<g filter="url(#filter0_d_3_40)">
<rect x="4" width="106" height="46" rx="23" fill="white"/>
</g>
<rect x="8" y="4" width="98" height="38" rx="19" fill="#4A66CA" fill-opacity="0.2" stroke="#4A66CA" stroke-width="2"/>
<circle cx="27" cy="23" r="15" fill="#4A66CA"/>
<path d="M74.742 25.382H69.282L68.106 28H67.028L71.508 18.2H72.53L77.01 28H75.918L74.742 25.382ZM74.364 24.542L72.012 19.278L69.66 24.542H74.364ZM85.0728 17.612V28H84.1208V26.544C83.8221 27.0387 83.4255 27.4167 82.9308 27.678C82.4455 27.9393 81.8948 28.07 81.2788 28.07C80.5881 28.07 79.9628 27.9113 79.4028 27.594C78.8428 27.2767 78.4041 26.8333 78.0868 26.264C77.7695 25.6947 77.6108 25.046 77.6108 24.318C77.6108 23.59 77.7695 22.9413 78.0868 22.372C78.4041 21.8027 78.8428 21.364 79.4028 21.056C79.9628 20.7387 80.5881 20.58 81.2788 20.58C81.8761 20.58 82.4128 20.706 82.8888 20.958C83.3741 21.2007 83.7708 21.56 84.0788 22.036V17.612H85.0728ZM81.3628 27.188C81.8761 27.188 82.3381 27.0713 82.7488 26.838C83.1688 26.5953 83.4955 26.2547 83.7288 25.816C83.9715 25.3773 84.0928 24.878 84.0928 24.318C84.0928 23.758 83.9715 23.2587 83.7288 22.82C83.4955 22.3813 83.1688 22.0453 82.7488 21.812C82.3381 21.5693 81.8761 21.448 81.3628 21.448C80.8401 21.448 80.3688 21.5693 79.9488 21.812C79.5381 22.0453 79.2115 22.3813 78.9688 22.82C78.7355 23.2587 78.6188 23.758 78.6188 24.318C78.6188 24.878 78.7355 25.3773 78.9688 25.816C79.2115 26.2547 79.5381 26.5953 79.9488 26.838C80.3688 27.0713 80.8401 27.188 81.3628 27.188ZM94.5611 17.612V28H93.6091V26.544C93.3104 27.0387 92.9137 27.4167 92.4191 27.678C91.9337 27.9393 91.3831 28.07 90.7671 28.07C90.0764 28.07 89.4511 27.9113 88.8911 27.594C88.3311 27.2767 87.8924 26.8333 87.5751 26.264C87.2577 25.6947 87.0991 25.046 87.0991 24.318C87.0991 23.59 87.2577 22.9413 87.5751 22.372C87.8924 21.8027 88.3311 21.364 88.8911 21.056C89.4511 20.7387 90.0764 20.58 90.7671 20.58C91.3644 20.58 91.9011 20.706 92.3771 20.958C92.8624 21.2007 93.2591 21.56 93.5671 22.036V17.612H94.5611ZM90.8511 27.188C91.3644 27.188 91.8264 27.0713 92.2371 26.838C92.6571 26.5953 92.9837 26.2547 93.2171 25.816C93.4597 25.3773 93.5811 24.878 93.5811 24.318C93.5811 23.758 93.4597 23.2587 93.2171 22.82C92.9837 22.3813 92.6571 22.0453 92.2371 21.812C91.8264 21.5693 91.3644 21.448 90.8511 21.448C90.3284 21.448 89.8571 21.5693 89.4371 21.812C89.0264 22.0453 88.6997 22.3813 88.4571 22.82C88.2237 23.2587 88.1071 23.758 88.1071 24.318C88.1071 24.878 88.2237 25.3773 88.4571 25.816C88.6997 26.2547 89.0264 26.5953 89.4371 26.838C89.8571 27.0713 90.3284 27.188 90.8511 27.188Z" fill="#4A66CA"/>
<defs>
<filter id="filter0_d_3_40" x="0" y="0" width="114" height="54" filterUnits="userSpaceOnUse" color-interpolation-filters="sRGB">
<feFlood flood-opacity="0" result="BackgroundImageFix"/>
<feColorMatrix in="SourceAlpha" type="matrix" values="0 0 0 0 0 0 0 0 0 0 0 0 0 0 0 0 0 0 127 0" result="hardAlpha"/>
<feOffset dy="4"/>
<feGaussianBlur stdDeviation="2"/>
<feComposite in2="hardAlpha" operator="out"/>
<feColorMatrix type="matrix" values="0 0 0 0 0 0 0 0 0 0 0 0 0 0 0 0 0 0 0.25 0"/>
<feBlend mode="normal" in2="BackgroundImageFix" result="effect1_dropShadow_3_40"/>
<feBlend mode="normal" in="SourceGraphic" in2="effect1_dropShadow_3_40" result="shape"/>
</filter>
</defs>
</svg>
