<svg width="114" height="54" viewBox="0 0 114 54" fill="none" xmlns="http://www.w3.org/2000/svg">
<g filter="url(#filter0_d_7_7)">
<rect x="4" width="106" height="46" rx="23" fill="white"/>
</g>
<rect x="8" y="4" width="98" height="38" rx="19" fill="#4A66CA" fill-opacity="0.2" stroke="#4A66CA" stroke-width="2"/>
<circle cx="87" cy="23" r="15" fill="#4A66CA"/>
<path d="M24.696 27L22.616 24.075C22.382 24.101 22.1393 24.114 21.888 24.114H19.444V27H18.482V17.9H21.888C23.0493 17.9 23.9593 18.1773 24.618 18.732C25.2767 19.2867 25.606 20.0493 25.606 21.02C25.606 21.7307 25.424 22.333 25.06 22.827C24.7047 23.3123 24.1933 23.6633 23.526 23.88L25.749 27H24.696ZM21.862 23.295C22.7633 23.295 23.4523 23.0957 23.929 22.697C24.4057 22.2983 24.644 21.7393 24.644 21.02C24.644 20.2833 24.4057 19.72 23.929 19.33C23.4523 18.9313 22.7633 18.732 21.862 18.732H19.444V23.295H21.862ZM33.6355 23.867H27.9155C27.9675 24.5777 28.2405 25.154 28.7345 25.596C29.2285 26.0293 29.8525 26.246 30.6065 26.246C31.0312 26.246 31.4212 26.1723 31.7765 26.025C32.1319 25.869 32.4395 25.6437 32.6995 25.349L33.2195 25.947C32.9162 26.311 32.5349 26.5883 32.0755 26.779C31.6249 26.9697 31.1265 27.065 30.5805 27.065C29.8785 27.065 29.2545 26.9177 28.7085 26.623C28.1712 26.3197 27.7509 25.9037 27.4475 25.375C27.1442 24.8463 26.9925 24.2483 26.9925 23.581C26.9925 22.9137 27.1355 22.3157 27.4215 21.787C27.7162 21.2583 28.1149 20.8467 28.6175 20.552C29.1289 20.2573 29.7009 20.11 30.3335 20.11C30.9662 20.11 31.5339 20.2573 32.0365 20.552C32.5392 20.8467 32.9335 21.2583 33.2195 21.787C33.5055 22.307 33.6485 22.905 33.6485 23.581L33.6355 23.867ZM30.3335 20.903C29.6749 20.903 29.1202 21.1153 28.6695 21.54C28.2275 21.956 27.9762 22.502 27.9155 23.178H32.7645C32.7039 22.502 32.4482 21.956 31.9975 21.54C31.5555 21.1153 31.0009 20.903 30.3335 20.903ZM44.0552 20.11C44.9132 20.11 45.5849 20.357 46.0702 20.851C46.5642 21.345 46.8112 22.073 46.8112 23.035V27H45.8882V23.126C45.8882 22.4153 45.7149 21.8737 45.3682 21.501C45.0302 21.1283 44.5492 20.942 43.9252 20.942C43.2146 20.942 42.6556 21.163 42.2482 21.605C41.8409 22.0383 41.6372 22.6407 41.6372 23.412V27H40.7142V23.126C40.7142 22.4153 40.5409 21.8737 40.1942 21.501C39.8562 21.1283 39.3709 20.942 38.7382 20.942C38.0362 20.942 37.4772 21.163 37.0612 21.605C36.6539 22.0383 36.4502 22.6407 36.4502 23.412V27H35.5272V20.162H36.4112V21.41C36.6539 20.994 36.9919 20.6733 37.4252 20.448C37.8586 20.2227 38.3569 20.11 38.9202 20.11C39.4922 20.11 39.9862 20.2313 40.4022 20.474C40.8269 20.7167 41.1432 21.0763 41.3512 21.553C41.6026 21.1023 41.9622 20.7513 42.4302 20.5C42.9069 20.24 43.4486 20.11 44.0552 20.11ZM52.1347 27.065C51.4761 27.065 50.8824 26.9177 50.3537 26.623C49.8251 26.3197 49.4091 25.9037 49.1057 25.375C48.8024 24.8463 48.6507 24.2483 48.6507 23.581C48.6507 22.9137 48.8024 22.3157 49.1057 21.787C49.4091 21.2583 49.8251 20.8467 50.3537 20.552C50.8824 20.2573 51.4761 20.11 52.1347 20.11C52.7934 20.11 53.3871 20.2573 53.9157 20.552C54.4444 20.8467 54.8561 21.2583 55.1507 21.787C55.4541 22.3157 55.6057 22.9137 55.6057 23.581C55.6057 24.2483 55.4541 24.8463 55.1507 25.375C54.8561 25.9037 54.4444 26.3197 53.9157 26.623C53.3871 26.9177 52.7934 27.065 52.1347 27.065ZM52.1347 26.246C52.6201 26.246 53.0534 26.1377 53.4347 25.921C53.8247 25.6957 54.1281 25.3793 54.3447 24.972C54.5614 24.5647 54.6697 24.101 54.6697 23.581C54.6697 23.061 54.5614 22.5973 54.3447 22.19C54.1281 21.7827 53.8247 21.4707 53.4347 21.254C53.0534 21.0287 52.6201 20.916 52.1347 20.916C51.6494 20.916 51.2117 21.0287 50.8217 21.254C50.4404 21.4707 50.1371 21.7827 49.9117 22.19C49.6951 22.5973 49.5867 23.061 49.5867 23.581C49.5867 24.101 49.6951 24.5647 49.9117 24.972C50.1371 25.3793 50.4404 25.6957 50.8217 25.921C51.2117 26.1377 51.6494 26.246 52.1347 26.246ZM63.0457 20.162L60.0037 27H59.0547L56.0257 20.162H56.9877L59.5487 25.986L62.1357 20.162H63.0457ZM70.1092 23.867H64.3892C64.4412 24.5777 64.7142 25.154 65.2082 25.596C65.7022 26.0293 66.3262 26.246 67.0802 26.246C67.5048 26.246 67.8948 26.1723 68.2502 26.025C68.6055 25.869 68.9132 25.6437 69.1732 25.349L69.6932 25.947C69.3898 26.311 69.0085 26.5883 68.5492 26.779C68.0985 26.9697 67.6002 27.065 67.0542 27.065C66.3522 27.065 65.7282 26.9177 65.1822 26.623C64.6448 26.3197 64.2245 25.9037 63.9212 25.375C63.6178 24.8463 63.4662 24.2483 63.4662 23.581C63.4662 22.9137 63.6092 22.3157 63.8952 21.787C64.1898 21.2583 64.5885 20.8467 65.0912 20.552C65.6025 20.2573 66.1745 20.11 66.8072 20.11C67.4398 20.11 68.0075 20.2573 68.5102 20.552C69.0128 20.8467 69.4072 21.2583 69.6932 21.787C69.9792 22.307 70.1222 22.905 70.1222 23.581L70.1092 23.867ZM66.8072 20.903C66.1485 20.903 65.5938 21.1153 65.1432 21.54C64.7012 21.956 64.4498 22.502 64.3892 23.178H69.2382C69.1775 22.502 68.9218 21.956 68.4712 21.54C68.0292 21.1153 67.4745 20.903 66.8072 20.903Z" fill="#4A66CA"/>
<defs>
<filter id="filter0_d_7_7" x="0" y="0" width="114" height="54" filterUnits="userSpaceOnUse" color-interpolation-filters="sRGB">
<feFlood flood-opacity="0" result="BackgroundImageFix"/>
<feColorMatrix in="SourceAlpha" type="matrix" values="0 0 0 0 0 0 0 0 0 0 0 0 0 0 0 0 0 0 127 0" result="hardAlpha"/>
<feOffset dy="4"/>
<feGaussianBlur stdDeviation="2"/>
<feComposite in2="hardAlpha" operator="out"/>
<feColorMatrix type="matrix" values="0 0 0 0 0 0 0 0 0 0 0 0 0 0 0 0 0 0 0.25 0"/>
<feBlend mode="normal" in2="BackgroundImageFix" result="effect1_dropShadow_7_7"/>
<feBlend mode="normal" in="SourceGraphic" in2="effect1_dropShadow_7_7" result="shape"/>
</filter>
</defs>
</svg>
