<svg width="258" height="48" viewBox="0 0 258 48" fill="none" xmlns="http://www.w3.org/2000/svg">
<g filter="url(#filter0_d_4_14)">
<rect x="4" width="250" height="40" rx="20" fill="white"/>
</g>
<rect x="10" y="4" width="240" height="32" rx="16" fill="url(#paint0_linear_4_14)"/>
<path d="M51.4879 13.2V11.54H55.2479V26H53.4079V13.2H51.4879ZM59.2542 26.12C58.9075 26.12 58.6142 26 58.3742 25.76C58.1342 25.52 58.0142 25.2267 58.0142 24.88C58.0142 24.5333 58.1342 24.24 58.3742 24C58.6142 23.76 58.9075 23.64 59.2542 23.64C59.5875 23.64 59.8675 23.76 60.0942 24C60.3342 24.24 60.4542 24.5333 60.4542 24.88C60.4542 25.2267 60.3342 25.52 60.0942 25.76C59.8675 26 59.5875 26.12 59.2542 26.12ZM73.96 26.14C73.04 26.14 72.2133 25.98 71.48 25.66C70.76 25.3267 70.1933 24.8733 69.78 24.3C69.3667 23.7133 69.1533 23.04 69.14 22.28H71.08C71.1467 22.9333 71.4133 23.4867 71.88 23.94C72.36 24.38 73.0533 24.6 73.96 24.6C74.8267 24.6 75.5067 24.3867 76 23.96C76.5067 23.52 76.76 22.96 76.76 22.28C76.76 21.7467 76.6133 21.3133 76.32 20.98C76.0267 20.6467 75.66 20.3933 75.22 20.22C74.78 20.0467 74.1867 19.86 73.44 19.66C72.52 19.42 71.78 19.18 71.22 18.94C70.6733 18.7 70.2 18.3267 69.8 17.82C69.4133 17.3 69.22 16.6067 69.22 15.74C69.22 14.98 69.4133 14.3067 69.8 13.72C70.1867 13.1333 70.7267 12.68 71.42 12.36C72.1267 12.04 72.9333 11.88 73.84 11.88C75.1467 11.88 76.2133 12.2067 77.04 12.86C77.88 13.5133 78.3533 14.38 78.46 15.46H76.46C76.3933 14.9267 76.1133 14.46 75.62 14.06C75.1267 13.6467 74.4733 13.44 73.66 13.44C72.9 13.44 72.28 13.64 71.8 14.04C71.32 14.4267 71.08 14.9733 71.08 15.68C71.08 16.1867 71.22 16.6 71.5 16.92C71.7933 17.24 72.1467 17.4867 72.56 17.66C72.9867 17.82 73.58 18.0067 74.34 18.22C75.26 18.4733 76 18.7267 76.56 18.98C77.12 19.22 77.6 19.6 78 20.12C78.4 20.6267 78.6 21.32 78.6 22.2C78.6 22.88 78.42 23.52 78.06 24.12C77.7 24.72 77.1667 25.2067 76.46 25.58C75.7533 25.9533 74.92 26.14 73.96 26.14ZM91.2783 20.1C91.2783 20.4467 91.2583 20.8133 91.2183 21.2H82.4583C82.5249 22.28 82.8916 23.1267 83.5583 23.74C84.2383 24.34 85.0583 24.64 86.0183 24.64C86.8049 24.64 87.4583 24.46 87.9783 24.1C88.5116 23.7267 88.8849 23.2333 89.0983 22.62H91.0583C90.7649 23.6733 90.1783 24.5333 89.2983 25.2C88.4183 25.8533 87.3249 26.18 86.0183 26.18C84.9783 26.18 84.0449 25.9467 83.2183 25.48C82.4049 25.0133 81.7649 24.3533 81.2983 23.5C80.8316 22.6333 80.5983 21.6333 80.5983 20.5C80.5983 19.3667 80.8249 18.3733 81.2783 17.52C81.7316 16.6667 82.3649 16.0133 83.1783 15.56C84.0049 15.0933 84.9516 14.86 86.0183 14.86C87.0583 14.86 87.9783 15.0867 88.7783 15.54C89.5783 15.9933 90.1916 16.62 90.6183 17.42C91.0583 18.2067 91.2783 19.1 91.2783 20.1ZM89.3983 19.72C89.3983 19.0267 89.2449 18.4333 88.9383 17.94C88.6316 17.4333 88.2116 17.0533 87.6783 16.8C87.1583 16.5333 86.5783 16.4 85.9383 16.4C85.0183 16.4 84.2316 16.6933 83.5783 17.28C82.9383 17.8667 82.5716 18.68 82.4783 19.72H89.3983ZM95.5006 11.2V26H93.6806V11.2H95.5006ZM108.603 20.1C108.603 20.4467 108.583 20.8133 108.543 21.2H99.7825C99.8492 22.28 100.216 23.1267 100.883 23.74C101.563 24.34 102.383 24.64 103.343 24.64C104.129 24.64 104.783 24.46 105.303 24.1C105.836 23.7267 106.209 23.2333 106.423 22.62H108.383C108.089 23.6733 107.503 24.5333 106.623 25.2C105.743 25.8533 104.649 26.18 103.343 26.18C102.303 26.18 101.369 25.9467 100.543 25.48C99.7292 25.0133 99.0892 24.3533 98.6225 23.5C98.1558 22.6333 97.9225 21.6333 97.9225 20.5C97.9225 19.3667 98.1492 18.3733 98.6025 17.52C99.0558 16.6667 99.6892 16.0133 100.503 15.56C101.329 15.0933 102.276 14.86 103.343 14.86C104.383 14.86 105.303 15.0867 106.103 15.54C106.903 15.9933 107.516 16.62 107.943 17.42C108.383 18.2067 108.603 19.1 108.603 20.1ZM106.723 19.72C106.723 19.0267 106.569 18.4333 106.263 17.94C105.956 17.4333 105.536 17.0533 105.003 16.8C104.483 16.5333 103.903 16.4 103.263 16.4C102.343 16.4 101.556 16.6933 100.903 17.28C100.263 17.8667 99.8958 18.68 99.8025 19.72H106.723ZM110.325 20.5C110.325 19.3667 110.552 18.38 111.005 17.54C111.458 16.6867 112.085 16.0267 112.885 15.56C113.698 15.0933 114.625 14.86 115.665 14.86C117.012 14.86 118.118 15.1867 118.985 15.84C119.865 16.4933 120.445 17.4 120.725 18.56H118.765C118.578 17.8933 118.212 17.3667 117.665 16.98C117.132 16.5933 116.465 16.4 115.665 16.4C114.625 16.4 113.785 16.76 113.145 17.48C112.505 18.1867 112.185 19.1933 112.185 20.5C112.185 21.82 112.505 22.84 113.145 23.56C113.785 24.28 114.625 24.64 115.665 24.64C116.465 24.64 117.132 24.4533 117.665 24.08C118.198 23.7067 118.565 23.1733 118.765 22.48H120.725C120.432 23.6 119.845 24.5 118.965 25.18C118.085 25.8467 116.985 26.18 115.665 26.18C114.625 26.18 113.698 25.9467 112.885 25.48C112.085 25.0133 111.458 24.3533 111.005 23.5C110.552 22.6467 110.325 21.6467 110.325 20.5ZM125.373 16.54V23C125.373 23.5333 125.487 23.9133 125.713 24.14C125.94 24.3533 126.333 24.46 126.893 24.46H128.233V26H126.593C125.58 26 124.82 25.7667 124.313 25.3C123.807 24.8333 123.553 24.0667 123.553 23V16.54H122.133V15.04H123.553V12.28H125.373V15.04H128.233V16.54H125.373ZM147.29 12.06L142.03 26H139.93L134.67 12.06H136.61L140.99 24.08L145.37 12.06H147.29ZM150.226 13.26C149.879 13.26 149.586 13.14 149.346 12.9C149.106 12.66 148.986 12.3667 148.986 12.02C148.986 11.6733 149.106 11.38 149.346 11.14C149.586 10.9 149.879 10.78 150.226 10.78C150.559 10.78 150.839 10.9 151.066 11.14C151.306 11.38 151.426 11.6733 151.426 12.02C151.426 12.3667 151.306 12.66 151.066 12.9C150.839 13.14 150.559 13.26 150.226 13.26ZM151.106 15.04V26H149.286V15.04H151.106ZM156.028 11.2V26H154.208V11.2H156.028ZM160.95 11.2V26H159.13V11.2H160.95ZM163.372 20.48C163.372 19.36 163.598 18.38 164.052 17.54C164.505 16.6867 165.125 16.0267 165.912 15.56C166.712 15.0933 167.598 14.86 168.572 14.86C169.532 14.86 170.365 15.0667 171.072 15.48C171.778 15.8933 172.305 16.4133 172.652 17.04V15.04H174.492V26H172.652V23.96C172.292 24.6 171.752 25.1333 171.032 25.56C170.325 25.9733 169.498 26.18 168.552 26.18C167.578 26.18 166.698 25.94 165.912 25.46C165.125 24.98 164.505 24.3067 164.052 23.44C163.598 22.5733 163.372 21.5867 163.372 20.48ZM172.652 20.5C172.652 19.6733 172.485 18.9533 172.152 18.34C171.818 17.7267 171.365 17.26 170.792 16.94C170.232 16.6067 169.612 16.44 168.932 16.44C168.252 16.44 167.632 16.6 167.072 16.92C166.512 17.24 166.065 17.7067 165.732 18.32C165.398 18.9333 165.232 19.6533 165.232 20.48C165.232 21.32 165.398 22.0533 165.732 22.68C166.065 23.2933 166.512 23.7667 167.072 24.1C167.632 24.42 168.252 24.58 168.932 24.58C169.612 24.58 170.232 24.42 170.792 24.1C171.365 23.7667 171.818 23.2933 172.152 22.68C172.485 22.0533 172.652 21.3267 172.652 20.5ZM182.087 14.86C183.034 14.86 183.861 15.0667 184.567 15.48C185.287 15.8933 185.821 16.4133 186.167 17.04V15.04H188.007V26.24C188.007 27.24 187.794 28.1267 187.367 28.9C186.941 29.6867 186.327 30.3 185.527 30.74C184.741 31.18 183.821 31.4 182.767 31.4C181.327 31.4 180.127 31.06 179.167 30.38C178.207 29.7 177.641 28.7733 177.467 27.6H179.267C179.467 28.2667 179.881 28.8 180.507 29.2C181.134 29.6133 181.887 29.82 182.767 29.82C183.767 29.82 184.581 29.5067 185.207 28.88C185.847 28.2533 186.167 27.3733 186.167 26.24V23.94C185.807 24.58 185.274 25.1133 184.567 25.54C183.861 25.9667 183.034 26.18 182.087 26.18C181.114 26.18 180.227 25.94 179.427 25.46C178.641 24.98 178.021 24.3067 177.567 23.44C177.114 22.5733 176.887 21.5867 176.887 20.48C176.887 19.36 177.114 18.38 177.567 17.54C178.021 16.6867 178.641 16.0267 179.427 15.56C180.227 15.0933 181.114 14.86 182.087 14.86ZM186.167 20.5C186.167 19.6733 186.001 18.9533 185.667 18.34C185.334 17.7267 184.881 17.26 184.307 16.94C183.747 16.6067 183.127 16.44 182.447 16.44C181.767 16.44 181.147 16.6 180.587 16.92C180.027 17.24 179.581 17.7067 179.247 18.32C178.914 18.9333 178.747 19.6533 178.747 20.48C178.747 21.32 178.914 22.0533 179.247 22.68C179.581 23.2933 180.027 23.7667 180.587 24.1C181.147 24.42 181.767 24.58 182.447 24.58C183.127 24.58 183.747 24.42 184.307 24.1C184.881 23.7667 185.334 23.2933 185.667 22.68C186.001 22.0533 186.167 21.3267 186.167 20.5ZM201.083 20.1C201.083 20.4467 201.063 20.8133 201.023 21.2H192.263C192.33 22.28 192.696 23.1267 193.363 23.74C194.043 24.34 194.863 24.64 195.823 24.64C196.61 24.64 197.263 24.46 197.783 24.1C198.316 23.7267 198.69 23.2333 198.903 22.62H200.863C200.57 23.6733 199.983 24.5333 199.103 25.2C198.223 25.8533 197.13 26.18 195.823 26.18C194.783 26.18 193.85 25.9467 193.023 25.48C192.21 25.0133 191.57 24.3533 191.103 23.5C190.636 22.6333 190.403 21.6333 190.403 20.5C190.403 19.3667 190.63 18.3733 191.083 17.52C191.536 16.6667 192.17 16.0133 192.983 15.56C193.81 15.0933 194.756 14.86 195.823 14.86C196.863 14.86 197.783 15.0867 198.583 15.54C199.383 15.9933 199.996 16.62 200.423 17.42C200.863 18.2067 201.083 19.1 201.083 20.1ZM199.203 19.72C199.203 19.0267 199.05 18.4333 198.743 17.94C198.436 17.4333 198.016 17.0533 197.483 16.8C196.963 16.5333 196.383 16.4 195.743 16.4C194.823 16.4 194.036 16.6933 193.383 17.28C192.743 17.8667 192.376 18.68 192.283 19.72H199.203ZM205.305 16.82C205.625 16.1933 206.079 15.7067 206.665 15.36C207.265 15.0133 207.992 14.84 208.845 14.84V16.72H208.365C206.325 16.72 205.305 17.8267 205.305 20.04V26H203.485V15.04H205.305V16.82Z" fill="white"/>
<defs>
<filter id="filter0_d_4_14" x="0" y="0" width="258" height="48" filterUnits="userSpaceOnUse" color-interpolation-filters="sRGB">
<feFlood flood-opacity="0" result="BackgroundImageFix"/>
<feColorMatrix in="SourceAlpha" type="matrix" values="0 0 0 0 0 0 0 0 0 0 0 0 0 0 0 0 0 0 127 0" result="hardAlpha"/>
<feOffset dy="4"/>
<feGaussianBlur stdDeviation="2"/>
<feComposite in2="hardAlpha" operator="out"/>
<feColorMatrix type="matrix" values="0 0 0 0 0 0 0 0 0 0 0 0 0 0 0 0 0 0 0.25 0"/>
<feBlend mode="normal" in2="BackgroundImageFix" result="effect1_dropShadow_4_14"/>
<feBlend mode="normal" in="SourceGraphic" in2="effect1_dropShadow_4_14" result="shape"/>
</filter>
<linearGradient id="paint0_linear_4_14" x1="10" y1="20" x2="237" y2="20" gradientUnits="userSpaceOnUse">
<stop stop-color="#FA9A52"/>
<stop offset="1" stop-color="#4965C9"/>
</linearGradient>
</defs>
</svg>
