<svg width="258" height="48" viewBox="0 0 258 48" fill="none" xmlns="http://www.w3.org/2000/svg">
<g filter="url(#filter0_d_4_16)">
<rect x="4" width="250" height="40" rx="20" fill="white"/>
</g>
<rect x="10" y="4" width="240" height="32" rx="16" fill="url(#paint0_linear_4_16)"/>
<path d="M89.2 15.18C89.2933 13.9533 89.7667 12.9933 90.62 12.3C91.4733 11.6067 92.58 11.26 93.94 11.26C94.8467 11.26 95.6267 11.4267 96.28 11.76C96.9467 12.08 97.4467 12.52 97.78 13.08C98.1267 13.64 98.3 14.2733 98.3 14.98C98.3 15.8067 98.06 16.52 97.58 17.12C97.1133 17.72 96.5 18.1067 95.74 18.28V18.38C96.6067 18.5933 97.2933 19.0133 97.8 19.64C98.3067 20.2667 98.56 21.0867 98.56 22.1C98.56 22.86 98.3867 23.5467 98.04 24.16C97.6933 24.76 97.1733 25.2333 96.48 25.58C95.7867 25.9267 94.9533 26.1 93.98 26.1C92.5667 26.1 91.4067 25.7333 90.5 25C89.5933 24.2533 89.0867 23.2 88.98 21.84H90.74C90.8333 22.64 91.16 23.2933 91.72 23.8C92.28 24.3067 93.0267 24.56 93.96 24.56C94.8933 24.56 95.6 24.32 96.08 23.84C96.5733 23.3467 96.82 22.7133 96.82 21.94C96.82 20.94 96.4867 20.22 95.82 19.78C95.1533 19.34 94.1467 19.12 92.8 19.12H92.34V17.6H92.82C94.0467 17.5867 94.9733 17.3867 95.6 17C96.2267 16.6 96.54 15.9867 96.54 15.16C96.54 14.4533 96.3067 13.8867 95.84 13.46C95.3867 13.0333 94.7333 12.82 93.88 12.82C93.0533 12.82 92.3867 13.0333 91.88 13.46C91.3733 13.8867 91.0733 14.46 90.98 15.18H89.2ZM101.897 26.12C101.551 26.12 101.257 26 101.017 25.76C100.777 25.52 100.657 25.2267 100.657 24.88C100.657 24.5333 100.777 24.24 101.017 24C101.257 23.76 101.551 23.64 101.897 23.64C102.231 23.64 102.511 23.76 102.737 24C102.977 24.24 103.097 24.5333 103.097 24.88C103.097 25.2267 102.977 25.52 102.737 25.76C102.511 26 102.231 26.12 101.897 26.12ZM118.189 26L114.869 20.3H112.669V26H110.849V12.06H115.349C116.402 12.06 117.289 12.24 118.009 12.6C118.742 12.96 119.289 13.4467 119.649 14.06C120.009 14.6733 120.189 15.3733 120.189 16.16C120.189 17.12 119.909 17.9667 119.349 18.7C118.802 19.4333 117.975 19.92 116.869 20.16L120.369 26H118.189ZM112.669 18.84H115.349C116.335 18.84 117.075 18.6 117.569 18.12C118.062 17.6267 118.309 16.9733 118.309 16.16C118.309 15.3333 118.062 14.6933 117.569 14.24C117.089 13.7867 116.349 13.56 115.349 13.56H112.669V18.84ZM133.017 20.1C133.017 20.4467 132.997 20.8133 132.957 21.2H124.197C124.263 22.28 124.63 23.1267 125.297 23.74C125.977 24.34 126.797 24.64 127.757 24.64C128.543 24.64 129.197 24.46 129.717 24.1C130.25 23.7267 130.623 23.2333 130.837 22.62H132.797C132.503 23.6733 131.917 24.5333 131.037 25.2C130.157 25.8533 129.063 26.18 127.757 26.18C126.717 26.18 125.783 25.9467 124.957 25.48C124.143 25.0133 123.503 24.3533 123.037 23.5C122.57 22.6333 122.337 21.6333 122.337 20.5C122.337 19.3667 122.563 18.3733 123.017 17.52C123.47 16.6667 124.103 16.0133 124.917 15.56C125.743 15.0933 126.69 14.86 127.757 14.86C128.797 14.86 129.717 15.0867 130.517 15.54C131.317 15.9933 131.93 16.62 132.357 17.42C132.797 18.2067 133.017 19.1 133.017 20.1ZM131.137 19.72C131.137 19.0267 130.983 18.4333 130.677 17.94C130.37 17.4333 129.95 17.0533 129.417 16.8C128.897 16.5333 128.317 16.4 127.677 16.4C126.757 16.4 125.97 16.6933 125.317 17.28C124.677 17.8667 124.31 18.68 124.217 19.72H131.137ZM139.299 26.18C138.459 26.18 137.706 26.04 137.039 25.76C136.372 25.4667 135.846 25.0667 135.459 24.56C135.072 24.04 134.859 23.4467 134.819 22.78H136.699C136.752 23.3267 137.006 23.7733 137.459 24.12C137.926 24.4667 138.532 24.64 139.279 24.64C139.972 24.64 140.519 24.4867 140.919 24.18C141.319 23.8733 141.519 23.4867 141.519 23.02C141.519 22.54 141.306 22.1867 140.879 21.96C140.452 21.72 139.792 21.4867 138.899 21.26C138.086 21.0467 137.419 20.8333 136.899 20.62C136.392 20.3933 135.952 20.0667 135.579 19.64C135.219 19.2 135.039 18.6267 135.039 17.92C135.039 17.36 135.206 16.8467 135.539 16.38C135.872 15.9133 136.346 15.5467 136.959 15.28C137.572 15 138.272 14.86 139.059 14.86C140.272 14.86 141.252 15.1667 141.999 15.78C142.746 16.3933 143.146 17.2333 143.199 18.3H141.379C141.339 17.7267 141.106 17.2667 140.679 16.92C140.266 16.5733 139.706 16.4 138.999 16.4C138.346 16.4 137.826 16.54 137.439 16.82C137.052 17.1 136.859 17.4667 136.859 17.92C136.859 18.28 136.972 18.58 137.199 18.82C137.439 19.0467 137.732 19.2333 138.079 19.38C138.439 19.5133 138.932 19.6667 139.559 19.84C140.346 20.0533 140.986 20.2667 141.479 20.48C141.972 20.68 142.392 20.9867 142.739 21.4C143.099 21.8133 143.286 22.3533 143.299 23.02C143.299 23.62 143.132 24.16 142.799 24.64C142.466 25.12 141.992 25.5 141.379 25.78C140.779 26.0467 140.086 26.18 139.299 26.18ZM155.588 15.04V26H153.768V24.38C153.421 24.94 152.935 25.38 152.308 25.7C151.695 26.0067 151.015 26.16 150.268 26.16C149.415 26.16 148.648 25.9867 147.968 25.64C147.288 25.28 146.748 24.7467 146.348 24.04C145.961 23.3333 145.768 22.4733 145.768 21.46V15.04H147.568V21.22C147.568 22.3 147.841 23.1333 148.388 23.72C148.935 24.2933 149.681 24.58 150.628 24.58C151.601 24.58 152.368 24.28 152.928 23.68C153.488 23.08 153.768 22.2067 153.768 21.06V15.04H155.588ZM160.481 11.2V26H158.661V11.2H160.481ZM165.803 16.54V23C165.803 23.5333 165.916 23.9133 166.143 24.14C166.37 24.3533 166.763 24.46 167.323 24.46H168.663V26H167.023C166.01 26 165.25 25.7667 164.743 25.3C164.236 24.8333 163.983 24.0667 163.983 23V16.54H162.563V15.04H163.983V12.28H165.803V15.04H168.663V16.54H165.803Z" fill="white"/>
<defs>
<filter id="filter0_d_4_16" x="0" y="0" width="258" height="48" filterUnits="userSpaceOnUse" color-interpolation-filters="sRGB">
<feFlood flood-opacity="0" result="BackgroundImageFix"/>
<feColorMatrix in="SourceAlpha" type="matrix" values="0 0 0 0 0 0 0 0 0 0 0 0 0 0 0 0 0 0 127 0" result="hardAlpha"/>
<feOffset dy="4"/>
<feGaussianBlur stdDeviation="2"/>
<feComposite in2="hardAlpha" operator="out"/>
<feColorMatrix type="matrix" values="0 0 0 0 0 0 0 0 0 0 0 0 0 0 0 0 0 0 0.25 0"/>
<feBlend mode="normal" in2="BackgroundImageFix" result="effect1_dropShadow_4_16"/>
<feBlend mode="normal" in="SourceGraphic" in2="effect1_dropShadow_4_16" result="shape"/>
</filter>
<linearGradient id="paint0_linear_4_16" x1="10" y1="20" x2="237" y2="20" gradientUnits="userSpaceOnUse">
<stop stop-color="#FA9A52"/>
<stop offset="1" stop-color="#4965C9"/>
</linearGradient>
</defs>
</svg>
