<svg width="258" height="48" viewBox="0 0 258 48" fill="none" xmlns="http://www.w3.org/2000/svg">
<g filter="url(#filter0_d_4_15)">
<rect x="4" width="250" height="40" rx="20" fill="white"/>
</g>
<rect x="10" y="4" width="240" height="32" rx="16" fill="url(#paint0_linear_4_15)"/>
<path d="M39.02 24.54C40.7133 23.18 42.04 22.0667 43 21.2C43.96 20.32 44.7667 19.4067 45.42 18.46C46.0867 17.5 46.42 16.56 46.42 15.64C46.42 14.7733 46.2067 14.0933 45.78 13.6C45.3667 13.0933 44.6933 12.84 43.76 12.84C42.8533 12.84 42.1467 13.1267 41.64 13.7C41.1467 14.26 40.88 15.0133 40.84 15.96H39.08C39.1333 14.4667 39.5867 13.3133 40.44 12.5C41.2933 11.6867 42.3933 11.28 43.74 11.28C45.1133 11.28 46.2 11.66 47 12.42C47.8133 13.18 48.22 14.2267 48.22 15.56C48.22 16.6667 47.8867 17.7467 47.22 18.8C46.5667 19.84 45.82 20.76 44.98 21.56C44.14 22.3467 43.0667 23.2667 41.76 24.32H48.64V25.84H39.02V24.54ZM51.6239 26.12C51.2772 26.12 50.9839 26 50.7439 25.76C50.5039 25.52 50.3839 25.2267 50.3839 24.88C50.3839 24.5333 50.5039 24.24 50.7439 24C50.9839 23.76 51.2772 23.64 51.6239 23.64C51.9572 23.64 52.2372 23.76 52.4639 24C52.7039 24.24 52.8239 24.5333 52.8239 24.88C52.8239 25.2267 52.7039 25.52 52.4639 25.76C52.2372 26 51.9572 26.12 51.6239 26.12ZM64.9952 26.14C64.0752 26.14 63.2485 25.98 62.5152 25.66C61.7952 25.3267 61.2285 24.8733 60.8152 24.3C60.4018 23.7133 60.1885 23.04 60.1752 22.28H62.1152C62.1818 22.9333 62.4485 23.4867 62.9152 23.94C63.3952 24.38 64.0885 24.6 64.9952 24.6C65.8618 24.6 66.5418 24.3867 67.0352 23.96C67.5418 23.52 67.7952 22.96 67.7952 22.28C67.7952 21.7467 67.6485 21.3133 67.3552 20.98C67.0618 20.6467 66.6952 20.3933 66.2552 20.22C65.8152 20.0467 65.2218 19.86 64.4752 19.66C63.5552 19.42 62.8152 19.18 62.2552 18.94C61.7085 18.7 61.2352 18.3267 60.8352 17.82C60.4485 17.3 60.2552 16.6067 60.2552 15.74C60.2552 14.98 60.4485 14.3067 60.8352 13.72C61.2218 13.1333 61.7618 12.68 62.4552 12.36C63.1618 12.04 63.9685 11.88 64.8752 11.88C66.1818 11.88 67.2485 12.2067 68.0752 12.86C68.9152 13.5133 69.3885 14.38 69.4952 15.46H67.4952C67.4285 14.9267 67.1485 14.46 66.6552 14.06C66.1618 13.6467 65.5085 13.44 64.6952 13.44C63.9352 13.44 63.3152 13.64 62.8352 14.04C62.3552 14.4267 62.1152 14.9733 62.1152 15.68C62.1152 16.1867 62.2552 16.6 62.5352 16.92C62.8285 17.24 63.1818 17.4867 63.5952 17.66C64.0218 17.82 64.6152 18.0067 65.3752 18.22C66.2952 18.4733 67.0352 18.7267 67.5952 18.98C68.1552 19.22 68.6352 19.6 69.0352 20.12C69.4352 20.6267 69.6352 21.32 69.6352 22.2C69.6352 22.88 69.4552 23.52 69.0952 24.12C68.7352 24.72 68.2018 25.2067 67.4952 25.58C66.7885 25.9533 65.9552 26.14 64.9952 26.14ZM82.3134 20.1C82.3134 20.4467 82.2934 20.8133 82.2534 21.2H73.4934C73.5601 22.28 73.9268 23.1267 74.5934 23.74C75.2734 24.34 76.0934 24.64 77.0534 24.64C77.8401 24.64 78.4934 24.46 79.0134 24.1C79.5468 23.7267 79.9201 23.2333 80.1334 22.62H82.0934C81.8001 23.6733 81.2134 24.5333 80.3334 25.2C79.4534 25.8533 78.3601 26.18 77.0534 26.18C76.0134 26.18 75.0801 25.9467 74.2534 25.48C73.4401 25.0133 72.8001 24.3533 72.3334 23.5C71.8668 22.6333 71.6334 21.6333 71.6334 20.5C71.6334 19.3667 71.8601 18.3733 72.3134 17.52C72.7668 16.6667 73.4001 16.0133 74.2134 15.56C75.0401 15.0933 75.9868 14.86 77.0534 14.86C78.0934 14.86 79.0134 15.0867 79.8134 15.54C80.6134 15.9933 81.2268 16.62 81.6534 17.42C82.0934 18.2067 82.3134 19.1 82.3134 20.1ZM80.4334 19.72C80.4334 19.0267 80.2801 18.4333 79.9734 17.94C79.6668 17.4333 79.2468 17.0533 78.7134 16.8C78.1934 16.5333 77.6134 16.4 76.9734 16.4C76.0534 16.4 75.2668 16.6933 74.6134 17.28C73.9734 17.8667 73.6068 18.68 73.5134 19.72H80.4334ZM86.5358 11.2V26H84.7158V11.2H86.5358ZM99.6377 20.1C99.6377 20.4467 99.6177 20.8133 99.5777 21.2H90.8177C90.8843 22.28 91.251 23.1267 91.9177 23.74C92.5977 24.34 93.4177 24.64 94.3777 24.64C95.1643 24.64 95.8177 24.46 96.3377 24.1C96.871 23.7267 97.2443 23.2333 97.4577 22.62H99.4177C99.1243 23.6733 98.5377 24.5333 97.6577 25.2C96.7777 25.8533 95.6843 26.18 94.3777 26.18C93.3377 26.18 92.4043 25.9467 91.5777 25.48C90.7643 25.0133 90.1243 24.3533 89.6577 23.5C89.191 22.6333 88.9577 21.6333 88.9577 20.5C88.9577 19.3667 89.1843 18.3733 89.6377 17.52C90.091 16.6667 90.7243 16.0133 91.5377 15.56C92.3643 15.0933 93.311 14.86 94.3777 14.86C95.4177 14.86 96.3377 15.0867 97.1377 15.54C97.9377 15.9933 98.551 16.62 98.9777 17.42C99.4177 18.2067 99.6377 19.1 99.6377 20.1ZM97.7577 19.72C97.7577 19.0267 97.6043 18.4333 97.2977 17.94C96.991 17.4333 96.571 17.0533 96.0377 16.8C95.5177 16.5333 94.9377 16.4 94.2977 16.4C93.3777 16.4 92.591 16.6933 91.9377 17.28C91.2977 17.8667 90.931 18.68 90.8377 19.72H97.7577ZM101.36 20.5C101.36 19.3667 101.587 18.38 102.04 17.54C102.493 16.6867 103.12 16.0267 103.92 15.56C104.733 15.0933 105.66 14.86 106.7 14.86C108.047 14.86 109.153 15.1867 110.02 15.84C110.9 16.4933 111.48 17.4 111.76 18.56H109.8C109.613 17.8933 109.247 17.3667 108.7 16.98C108.167 16.5933 107.5 16.4 106.7 16.4C105.66 16.4 104.82 16.76 104.18 17.48C103.54 18.1867 103.22 19.1933 103.22 20.5C103.22 21.82 103.54 22.84 104.18 23.56C104.82 24.28 105.66 24.64 106.7 24.64C107.5 24.64 108.167 24.4533 108.7 24.08C109.233 23.7067 109.6 23.1733 109.8 22.48H111.76C111.467 23.6 110.88 24.5 110 25.18C109.12 25.8467 108.02 26.18 106.7 26.18C105.66 26.18 104.733 25.9467 103.92 25.48C103.12 25.0133 102.493 24.3533 102.04 23.5C101.587 22.6467 101.36 21.6467 101.36 20.5ZM116.408 16.54V23C116.408 23.5333 116.522 23.9133 116.748 24.14C116.975 24.3533 117.368 24.46 117.928 24.46H119.268V26H117.628C116.615 26 115.855 25.7667 115.348 25.3C114.842 24.8333 114.588 24.0667 114.588 23V16.54H113.168V15.04H114.588V12.28H116.408V15.04H119.268V16.54H116.408ZM133.126 26.14C131.832 26.14 130.652 25.84 129.586 25.24C128.519 24.6267 127.672 23.78 127.046 22.7C126.432 21.6067 126.126 20.38 126.126 19.02C126.126 17.66 126.432 16.44 127.046 15.36C127.672 14.2667 128.519 13.42 129.586 12.82C130.652 12.2067 131.832 11.9 133.126 11.9C134.432 11.9 135.619 12.2067 136.686 12.82C137.752 13.42 138.592 14.26 139.206 15.34C139.819 16.42 140.126 17.6467 140.126 19.02C140.126 20.3933 139.819 21.62 139.206 22.7C138.592 23.78 137.752 24.6267 136.686 25.24C135.619 25.84 134.432 26.14 133.126 26.14ZM133.126 24.56C134.099 24.56 134.972 24.3333 135.746 23.88C136.532 23.4267 137.146 22.78 137.586 21.94C138.039 21.1 138.266 20.1267 138.266 19.02C138.266 17.9 138.039 16.9267 137.586 16.1C137.146 15.26 136.539 14.6133 135.766 14.16C134.992 13.7067 134.112 13.48 133.126 13.48C132.139 13.48 131.259 13.7067 130.486 14.16C129.712 14.6133 129.099 15.26 128.646 16.1C128.206 16.9267 127.986 17.9 127.986 19.02C127.986 20.1267 128.206 21.1 128.646 21.94C129.099 22.78 129.712 23.4267 130.486 23.88C131.272 24.3333 132.152 24.56 133.126 24.56ZM144.348 17.06C144.708 16.4333 145.242 15.9133 145.948 15.5C146.668 15.0733 147.502 14.86 148.448 14.86C149.422 14.86 150.302 15.0933 151.088 15.56C151.888 16.0267 152.515 16.6867 152.968 17.54C153.422 18.38 153.648 19.36 153.648 20.48C153.648 21.5867 153.422 22.5733 152.968 23.44C152.515 24.3067 151.888 24.98 151.088 25.46C150.302 25.94 149.422 26.18 148.448 26.18C147.515 26.18 146.688 25.9733 145.968 25.56C145.262 25.1333 144.722 24.6067 144.348 23.98V31.2H142.528V15.04H144.348V17.06ZM151.788 20.48C151.788 19.6533 151.622 18.9333 151.288 18.32C150.955 17.7067 150.502 17.24 149.928 16.92C149.368 16.6 148.748 16.44 148.068 16.44C147.402 16.44 146.782 16.6067 146.208 16.94C145.648 17.26 145.195 17.7333 144.848 18.36C144.515 18.9733 144.348 19.6867 144.348 20.5C144.348 21.3267 144.515 22.0533 144.848 22.68C145.195 23.2933 145.648 23.7667 146.208 24.1C146.782 24.42 147.402 24.58 148.068 24.58C148.748 24.58 149.368 24.42 149.928 24.1C150.502 23.7667 150.955 23.2933 151.288 22.68C151.622 22.0533 151.788 21.32 151.788 20.48ZM158.264 16.54V23C158.264 23.5333 158.377 23.9133 158.604 24.14C158.831 24.3533 159.224 24.46 159.784 24.46H161.124V26H159.484C158.471 26 157.711 25.7667 157.204 25.3C156.697 24.8333 156.444 24.0667 156.444 23V16.54H155.024V15.04H156.444V12.28H158.264V15.04H161.124V16.54H158.264ZM164.269 13.26C163.922 13.26 163.629 13.14 163.389 12.9C163.149 12.66 163.029 12.3667 163.029 12.02C163.029 11.6733 163.149 11.38 163.389 11.14C163.629 10.9 163.922 10.78 164.269 10.78C164.602 10.78 164.882 10.9 165.109 11.14C165.349 11.38 165.469 11.6733 165.469 12.02C165.469 12.3667 165.349 12.66 165.109 12.9C164.882 13.14 164.602 13.26 164.269 13.26ZM165.149 15.04V26H163.329V15.04H165.149ZM173.031 26.18C172.004 26.18 171.071 25.9467 170.231 25.48C169.404 25.0133 168.751 24.3533 168.271 23.5C167.804 22.6333 167.571 21.6333 167.571 20.5C167.571 19.38 167.811 18.3933 168.291 17.54C168.784 16.6733 169.451 16.0133 170.291 15.56C171.131 15.0933 172.071 14.86 173.111 14.86C174.151 14.86 175.091 15.0933 175.931 15.56C176.771 16.0133 177.431 16.6667 177.911 17.52C178.404 18.3733 178.651 19.3667 178.651 20.5C178.651 21.6333 178.398 22.6333 177.891 23.5C177.398 24.3533 176.724 25.0133 175.871 25.48C175.018 25.9467 174.071 26.18 173.031 26.18ZM173.031 24.58C173.684 24.58 174.298 24.4267 174.871 24.12C175.444 23.8133 175.904 23.3533 176.251 22.74C176.611 22.1267 176.791 21.38 176.791 20.5C176.791 19.62 176.618 18.8733 176.271 18.26C175.924 17.6467 175.471 17.1933 174.911 16.9C174.351 16.5933 173.744 16.44 173.091 16.44C172.424 16.44 171.811 16.5933 171.251 16.9C170.704 17.1933 170.264 17.6467 169.931 18.26C169.598 18.8733 169.431 19.62 169.431 20.5C169.431 21.3933 169.591 22.1467 169.911 22.76C170.244 23.3733 170.684 23.8333 171.231 24.14C171.778 24.4333 172.378 24.58 173.031 24.58ZM186.384 14.84C187.717 14.84 188.797 15.2467 189.624 16.06C190.451 16.86 190.864 18.02 190.864 19.54V26H189.064V19.8C189.064 18.7067 188.791 17.8733 188.244 17.3C187.697 16.7133 186.951 16.42 186.004 16.42C185.044 16.42 184.277 16.72 183.704 17.32C183.144 17.92 182.864 18.7933 182.864 19.94V26H181.044V15.04H182.864V16.6C183.224 16.04 183.711 15.6067 184.324 15.3C184.951 14.9933 185.637 14.84 186.384 14.84ZM197.717 26.18C196.877 26.18 196.124 26.04 195.457 25.76C194.79 25.4667 194.264 25.0667 193.877 24.56C193.49 24.04 193.277 23.4467 193.237 22.78H195.117C195.17 23.3267 195.424 23.7733 195.877 24.12C196.344 24.4667 196.95 24.64 197.697 24.64C198.39 24.64 198.937 24.4867 199.337 24.18C199.737 23.8733 199.937 23.4867 199.937 23.02C199.937 22.54 199.724 22.1867 199.297 21.96C198.87 21.72 198.21 21.4867 197.317 21.26C196.504 21.0467 195.837 20.8333 195.317 20.62C194.81 20.3933 194.37 20.0667 193.997 19.64C193.637 19.2 193.457 18.6267 193.457 17.92C193.457 17.36 193.624 16.8467 193.957 16.38C194.29 15.9133 194.764 15.5467 195.377 15.28C195.99 15 196.69 14.86 197.477 14.86C198.69 14.86 199.67 15.1667 200.417 15.78C201.164 16.3933 201.564 17.2333 201.617 18.3H199.797C199.757 17.7267 199.524 17.2667 199.097 16.92C198.684 16.5733 198.124 16.4 197.417 16.4C196.764 16.4 196.244 16.54 195.857 16.82C195.47 17.1 195.277 17.4667 195.277 17.92C195.277 18.28 195.39 18.58 195.617 18.82C195.857 19.0467 196.15 19.2333 196.497 19.38C196.857 19.5133 197.35 19.6667 197.977 19.84C198.764 20.0533 199.404 20.2667 199.897 20.48C200.39 20.68 200.81 20.9867 201.157 21.4C201.517 21.8133 201.704 22.3533 201.717 23.02C201.717 23.62 201.55 24.16 201.217 24.64C200.884 25.12 200.41 25.5 199.797 25.78C199.197 26.0467 198.504 26.18 197.717 26.18Z" fill="white"/>
<defs>
<filter id="filter0_d_4_15" x="0" y="0" width="258" height="48" filterUnits="userSpaceOnUse" color-interpolation-filters="sRGB">
<feFlood flood-opacity="0" result="BackgroundImageFix"/>
<feColorMatrix in="SourceAlpha" type="matrix" values="0 0 0 0 0 0 0 0 0 0 0 0 0 0 0 0 0 0 127 0" result="hardAlpha"/>
<feOffset dy="4"/>
<feGaussianBlur stdDeviation="2"/>
<feComposite in2="hardAlpha" operator="out"/>
<feColorMatrix type="matrix" values="0 0 0 0 0 0 0 0 0 0 0 0 0 0 0 0 0 0 0.25 0"/>
<feBlend mode="normal" in2="BackgroundImageFix" result="effect1_dropShadow_4_15"/>
<feBlend mode="normal" in="SourceGraphic" in2="effect1_dropShadow_4_15" result="shape"/>
</filter>
<linearGradient id="paint0_linear_4_15" x1="10" y1="20" x2="237" y2="20" gradientUnits="userSpaceOnUse">
<stop stop-color="#FA9A52"/>
<stop offset="1" stop-color="#4965C9"/>
</linearGradient>
</defs>
</svg>
